<svg width="15" height="15" viewBox="0 0 15 15" fill="none" xmlns="http://www.w3.org/2000/svg">
<path d="M0.655188 10.1005L8.46933 5.40479L3.89165 4.12813C3.5757 4.04002 3.38777 3.70123 3.47243 3.37239L3.98808 1.3694C4.07274 1.04055 4.39823 0.844952 4.71418 0.933067L14.3888 3.62921C14.7048 3.71733 14.8927 4.05611 14.8081 4.38496L12.2154 14.456C12.1307 14.7848 11.8052 14.9804 11.4893 14.8923L9.56486 14.3556C9.24891 14.2675 9.06098 13.9287 9.14564 13.5998L10.4627 8.484L2.43456 13.3082C2.15003 13.4792 1.78741 13.3781 1.62314 13.082L0.436455 10.9426C0.2735 10.6489 0.370665 10.2714 0.655188 10.1005Z" fill="white"/>
</svg>
