<svg width="1245" height="1299" viewBox="0 0 1245 1299" fill="none" xmlns="http://www.w3.org/2000/svg">
<path d="M29.9332 1210.44C25.359 1219.66 13.4373 1227.25 5.05325 1221.27C-2.333 1215.99 -0.86871 1204.16 4.61267 1196.93C10.094 1189.71 18.342 1185.07 24.3288 1178.26C30.3155 1171.45 33.5227 1160.39 27.4517 1153.65C23.6225 1149.4 17.4932 1148.36 12.2257 1146.11C6.95812 1143.87 1.74887 1138.6 3.55656 1133.18C5.01437 1128.82 10.2949 1126.99 14.9145 1126.99C19.5277 1126.99 24.1992 1128.17 28.7152 1127.23C41.2524 1124.63 44.7446 1108.96 48.036 1096.62C54.8716 1070.98 84.1379 1027.11 94.712 1034.47C105.571 1042.8 89.6776 1073.18 85.6476 1092.29C81.6694 1111.13 77.594 1130.28 68.4584 1147.24C61.8367 1159.54 51.4376 1166.81 43.371 1177.51C36.1403 1187.1 35.2267 1199.78 29.9332 1210.44Z" fill="#52D5B5"/>
<path d="M44.5761 1063.79C42.9693 1077.22 41.2717 1090.96 35.1424 1103.02C33.3218 1106.61 30.7819 1110.26 26.8944 1111.32C21.6074 1112.76 16.1261 1108.47 14.273 1103.33C12.42 1098.18 13.2364 1092.51 14.0786 1087.11C16.9424 1068.67 19.8062 1050.23 22.67 1031.79C24.7174 1018.62 26.9852 1004.89 34.8962 994.142C42.8073 983.401 58.2342 976.891 69.955 983.298C79.5312 988.532 83.5612 1000.67 82.395 1011.49C81.2352 1022.31 75.9158 1032.19 70.6936 1041.76C68.9637 1044.93 67.1171 1048.23 64.0849 1050.18C61.0461 1052.13 56.4524 1052.18 54.2689 1049.31C51.904 1046.19 58.2795 1023.18 50.2778 1030.97C44.2327 1036.85 45.4897 1056.15 44.5761 1063.8V1063.79Z" fill="#52D5B5"/>
<path d="M111.487 975.653C107.463 983.938 101.794 991.433 94.9 997.561C91.6993 1000.41 88.1293 1003.1 86.2957 1006.97C84.4621 1010.83 85.1877 1016.34 89.0623 1018.18C93.2996 1020.2 98.0294 1016.85 101.522 1013.72C108.804 1007.2 116.087 1000.67 123.369 994.148C129.24 988.887 135.11 983.627 140.98 978.367C146.928 973.036 153.051 967.471 156.238 960.157C159.426 952.844 158.836 943.25 152.694 938.139C144.893 931.648 133.03 935.295 124.186 940.283C113.547 946.288 103.789 953.861 95.3406 962.671C93.1117 964.997 90.9153 967.504 89.9564 970.574C88.9975 973.645 89.613 977.421 92.2047 979.332C95.8848 982.047 99.5455 979.604 102.986 977.985C102.733 978.102 112.562 973.424 111.487 975.64V975.653Z" fill="#52D5B5"/>
<path d="M54.2562 1294.34C58.4028 1296.17 63.4307 1294.84 67.5644 1292.8C84.9674 1284.23 94.6408 1265.15 99.39 1246.39C104.139 1227.63 105.208 1207.97 111.513 1189.66C114.175 1181.93 118.666 1173.71 126.577 1171.56C136.328 1168.91 145.645 1176.77 151.994 1184.61C168.361 1204.85 179.213 1229.47 183.101 1255.18C184.163 1262.22 186.593 1271.26 193.72 1271.73C197.4 1271.98 200.828 1269.42 202.61 1266.2C204.398 1262.98 204.832 1259.21 205.039 1255.54C207.216 1217.04 185.615 1178.17 151.716 1159.61C142.25 1154.43 131.624 1150.46 124.724 1142.17C118.847 1135.12 116.469 1125.68 116.359 1116.51C116.249 1107.34 118.218 1098.29 120.182 1089.32C122.709 1077.77 129.823 1067.74 132.356 1056.18C135.375 1043.89 136.762 1034.03 130.827 1025.88C128.17 1022.24 122.585 1021.76 118.549 1023.79C114.512 1025.82 111.772 1029.72 109.64 1033.69C98.4376 1054.52 99.8047 1079.51 95.8459 1102.82C85.4404 1164.14 38.4794 1212.6 16.2947 1270.71C13.6059 1277.76 12.1286 1287.47 18.6402 1291.31C22.4629 1293.55 27.562 1292.4 31.0802 1289.7C34.5984 1287 36.8985 1283.05 39.1014 1279.21C55.0272 1251.45 70.9465 1223.7 86.8723 1195.94C87.883 1220.46 78.4558 1245.22 61.3832 1262.89C57.0357 1267.39 52.1051 1271.62 49.5976 1277.34C47.0902 1283.06 48.0102 1290.93 53.4851 1293.96C53.7378 1294.1 53.9905 1294.23 54.2432 1294.34H54.2562Z" fill="#52D5B5"/>
<path d="M115.27 1293.89C111.687 1296.39 107.657 1298.51 103.303 1298.83C98.9492 1299.16 94.213 1297.36 92.0489 1293.57C89.7294 1289.52 90.8568 1284.26 93.3772 1280.33C95.904 1276.39 99.6166 1273.41 102.927 1270.11C115.536 1257.53 122.449 1239.47 121.445 1221.71C121.056 1214.83 119.547 1207.88 120.803 1201.09C122.06 1194.31 127.218 1187.51 134.138 1187.38C142.71 1187.22 147.932 1196.47 151.204 1204.37C159.082 1223.37 166.955 1242.37 174.833 1261.37C177.062 1266.74 179.317 1272.27 179.395 1278.07C179.472 1283.88 176.848 1290.11 171.594 1292.62C164.959 1295.8 156.698 1291.8 152.551 1285.74C148.405 1279.67 147.297 1272.13 146.053 1264.89C144.809 1257.66 143.144 1250.09 138.226 1244.63C141.628 1248.41 136.127 1266.09 134.254 1270.41C130.205 1279.78 123.667 1288.03 115.277 1293.89H115.27Z" fill="#52D5B5"/>
<path d="M216.093 1257.73C209.128 1232.78 202.162 1207.84 195.197 1182.89C193.642 1177.33 193.066 1169.62 198.456 1167.5C204.482 1165.13 210.365 1173.08 216.767 1172.12C224.172 1171.02 224.937 1160.22 230.774 1155.55C235.809 1151.52 243.882 1153.38 248.029 1158.32C252.175 1163.25 252.985 1170.25 252.02 1176.61C251.054 1182.97 248.534 1188.98 246.655 1195.13C241.945 1210.6 241.348 1227.3 244.944 1243.06C247.387 1253.75 257.3 1276.18 242.806 1282.76C227.347 1289.78 219.099 1268.52 216.086 1257.72L216.093 1257.73Z" fill="#52D5B5"/>
<path d="M260.125 1272.13C256.6 1265.3 256.996 1257.19 257.475 1249.52C257.993 1241.29 258.512 1233.06 259.024 1224.82C259.289 1220.61 259.581 1216.28 261.33 1212.43C263.08 1208.58 266.643 1205.26 270.874 1205.03C277.327 1204.69 283.8 1211.3 289.456 1208.18C292.508 1206.5 293.642 1202.63 296.337 1200.42C301.469 1196.22 309.989 1200.51 311.913 1206.85C313.837 1213.18 311.064 1220 307.442 1225.55C303.821 1231.1 299.253 1236.15 296.953 1242.37C292.871 1253.39 299.11 1273.69 288.627 1281.72C279.912 1288.39 264.46 1280.52 260.119 1272.11L260.125 1272.13Z" fill="#52D5B5"/>
<path d="M176.356 1137.63C181.332 1142.98 187.818 1149.62 184.954 1156.34C182.233 1162.72 173.136 1163.09 166.579 1160.76C148.735 1154.39 137.015 1136.2 134.216 1117.51C131.417 1098.83 136.256 1079.78 143.306 1062.24C144.926 1058.21 146.837 1054.01 150.439 1051.57C154.042 1049.13 159.815 1049.4 161.92 1053.2C163.223 1055.56 162.782 1058.44 162.938 1061.12C163.093 1063.81 164.434 1066.94 167.11 1067.27C172.047 1067.87 172.43 1059.71 176.401 1056.72C179.939 1054.06 185.369 1056.74 187.286 1060.72C189.204 1064.69 188.757 1069.33 188.666 1073.74C188.271 1092.19 195.133 1110.7 207.469 1124.46C210.268 1127.58 213.365 1130.52 215.367 1134.19C217.369 1137.87 218.088 1142.58 215.937 1146.17C213.326 1150.52 207.255 1151.77 202.422 1150.22C197.588 1148.66 193.785 1144.95 190.481 1141.11C183.904 1133.48 178.494 1124.87 174.477 1115.64C172.961 1112.16 171.6 1108.52 169.106 1105.65C159.776 1094.9 161.13 1109.35 163.197 1115.46C165.963 1123.66 170.46 1131.27 176.35 1137.62L176.356 1137.63Z" fill="#52D5B5"/>
<path d="M184.332 1021.37C185.252 1028.82 185.563 1037.81 179.485 1042.25C174.937 1045.58 168.348 1044.75 163.566 1041.78C158.778 1038.81 155.389 1034.1 152.124 1029.52C148.664 1024.66 145.204 1019.79 141.744 1014.94C137.442 1008.89 132.92 1001.73 134.876 994.588C136.911 987.171 144.861 983.382 151.554 979.559C164.616 972.097 175.669 961.181 183.276 948.232C185.582 944.3 187.636 940.115 190.908 936.934C194.18 933.754 199.091 931.745 203.387 933.313C207.579 934.842 210.028 939.357 210.611 943.775C211.194 948.187 210.3 952.643 209.827 957.074C207.372 979.948 216.915 1003.77 234.493 1018.67C239.554 1022.96 245.203 1026.52 250.218 1030.87C255.233 1035.22 259.697 1040.56 261.408 1046.96C263.118 1053.36 261.505 1060.96 256.225 1064.98C250.944 1069 242.003 1067.84 239.048 1061.91C237.409 1058.63 237.765 1054.75 237.137 1051.13C235.329 1040.75 225.889 1033.77 218.062 1026.68C210.242 1019.59 203.452 1011.36 197.938 1002.37C195.832 998.935 188.109 976.424 185.653 975.822C177.95 973.937 183.962 1018.28 184.345 1021.38L184.332 1021.37Z" fill="#52D5B5"/>
<path d="M204.177 1113.54C198.275 1110.29 197.335 1102.08 198.903 1095.55C200.471 1089.01 203.795 1082.79 203.795 1076.06C203.795 1068.76 199.882 1062.12 196.759 1055.51C193.636 1048.9 191.219 1041.11 194.193 1034.43C197.154 1031.77 201.916 1032.06 205.376 1034.04C208.836 1036.02 211.298 1039.31 213.656 1042.51C220.33 1051.57 226.997 1060.63 233.671 1069.68C239.126 1077.08 244.62 1084.55 248.424 1092.92C252.227 1101.29 254.261 1110.73 252.447 1119.73C251.598 1123.94 249.817 1128.12 246.571 1130.94C243.325 1133.77 238.413 1134.93 234.571 1132.98C229.33 1130.33 228.047 1123.43 228.442 1117.58C228.824 1111.92 230.755 1104.42 227.489 1099.21C225.254 1095.65 220.712 1092.98 218.14 1097.15C216.255 1100.21 219.611 1105.95 217.382 1109.81C214.797 1114.27 208.771 1116.07 204.177 1113.54V1113.54Z" fill="#52D5B5"/>
<path d="M293.318 1174.87C293.266 1183.72 285.867 1193.1 277.094 1191.76C268.567 1190.46 264.401 1180.8 262.36 1172.44C259.179 1159.41 257.352 1146.06 256.931 1132.66C256.574 1121.3 257.268 1109.69 261.434 1099.12C265.593 1088.54 273.66 1079.05 284.428 1075.35C295.197 1071.64 308.596 1074.88 314.848 1084.37C321.1 1093.88 319.124 1106.35 321.185 1117.52C326.141 1144.4 353.619 1161.3 364.252 1186.49C366.798 1192.52 367.686 1200.83 362.185 1204.42C356.716 1207.98 349.162 1203.63 346.052 1197.91C342.942 1192.19 342.462 1185.4 339.884 1179.42C337.305 1173.44 331.027 1167.95 324.807 1169.92C328.908 1175.58 333.178 1181.69 333.456 1188.68C333.741 1195.66 328.053 1203.3 321.113 1202.29C316.844 1201.67 313.539 1198.01 312.017 1193.98C310.501 1189.95 310.423 1185.55 310.241 1181.25C309.71 1168.72 308.103 1156.23 305.46 1143.97C304.43 1139.22 303.166 1134.32 300.121 1130.53C297.069 1126.73 291.756 1124.32 287.195 1126.05C269.06 1132.92 293.376 1163.83 293.311 1174.86L293.318 1174.87Z" fill="#52D5B5"/>
<path d="M241.951 993.643C241.277 999.641 235.589 1005.48 229.731 1003.96C223.518 1002.34 221.71 994.569 221.043 988.201C219.43 972.764 217.81 957.327 216.196 941.883C214.473 925.397 212.743 908.904 211.02 892.418C210.372 886.205 210.125 878.911 214.914 874.882C219.339 871.157 226.479 872.271 230.787 876.132C235.096 879.993 237.033 885.855 237.837 891.575C238.634 897.295 238.472 903.126 239.457 908.82C242.567 926.783 258.168 941.883 276.271 944.442C279.621 944.915 283.087 945.012 286.217 946.295C289.346 947.578 292.145 950.454 292.029 953.829C291.899 957.677 288.018 960.501 284.195 961.032C280.366 961.564 276.537 960.436 272.74 959.717C268.943 958.998 264.751 958.759 261.486 960.806C266.365 971.935 271.094 983.122 275.669 994.381C278.798 1002.08 281.869 1009.85 283.489 1018C284.681 1024.01 283.981 1031.97 278.15 1033.9C274.418 1035.15 270.233 1033 267.868 1029.86C265.496 1026.73 264.512 1022.8 263.481 1019.01C257.961 998.754 249.584 979.281 238.673 961.33C238.686 966.616 237.629 972.829 238.413 978.011C239.243 983.492 242.651 987.774 241.951 993.656V993.643Z" fill="#52D5B5"/>
<path d="M297.503 1053.47C293.888 1053.95 290.305 1054.98 286.664 1054.74C283.023 1054.49 279.154 1052.57 278.072 1049.09C277.068 1045.87 278.811 1042.31 281.429 1040.17C284.046 1038.04 287.377 1037.02 290.616 1036.05C303.536 1032.18 318.606 1028.6 329.64 1036.35C337.428 1041.82 340.836 1051.41 345.261 1059.82C355.511 1079.31 372.817 1094.18 391.089 1106.51C409.366 1118.84 429.005 1129.14 446.68 1142.31C464.355 1155.49 480.333 1172.14 487.738 1192.87C489.52 1197.86 490.259 1204.55 485.795 1207.44C482.445 1209.61 477.76 1208.19 474.897 1205.41C472.033 1202.64 470.491 1198.83 468.728 1195.26C459.858 1177.33 444.03 1163.74 427.197 1152.87C410.364 1142 392.158 1133.34 375.532 1122.15C359.451 1111.33 345.145 1098.48 338.07 1080.21C331.778 1063.96 315.775 1051.01 297.503 1053.45V1053.47Z" fill="#52D5B5"/>
<path d="M293.895 1009.65C289.547 1003.44 301.689 993.189 309.503 988.849C317.317 984.508 327.003 983.66 335.458 986.575C345.378 989.995 352.913 997.97 360.027 1005.67C369.254 1015.65 378.487 1025.63 387.713 1035.61C391.924 1040.16 396.33 1045.12 397.172 1051.26C398.015 1057.39 393.324 1064.61 387.156 1063.86C383.229 1063.39 380.353 1060.08 377.884 1057C368.016 1044.72 358.369 1027.68 345.287 1018.45C339.644 1014.46 335.303 1010.85 325.811 1010.34C316.319 1009.82 298.242 1015.85 293.895 1009.64V1009.65Z" fill="#52D5B5"/>
<path d="M306.483 983.867C299.959 985.299 291.834 986.186 287.83 980.855C284.014 975.776 287.039 967.964 292.372 964.492C297.704 961.019 304.423 960.702 310.786 960.495C301.112 950.02 294.821 936.494 293.046 922.365C292.184 915.498 292.236 908.12 288.42 902.342C284.603 896.563 274.833 894.186 271.01 899.958C268.334 903.994 270.019 909.305 270.842 914.067C271.671 918.828 270.446 925.151 265.678 926.051C262.885 926.576 260.073 924.768 258.551 922.378C257.028 919.988 256.516 917.111 256.037 914.319C251.793 889.528 247.549 864.743 243.305 839.952C242.638 836.065 242.171 831.498 244.977 828.713C248.851 824.871 255.907 827.864 258.551 832.625C261.194 837.393 261.149 843.126 262.47 848.412C266.559 864.763 282.99 874.778 298.767 880.822C314.544 886.872 331.836 891.187 343.829 903.067C348.475 907.667 352.084 913.212 356.684 917.856C363.571 924.814 372.39 929.497 381.052 934.071C392.203 939.953 403.354 945.841 414.511 951.723C417.452 953.278 420.478 954.898 422.564 957.476C424.651 960.054 425.577 963.883 423.873 966.733C422.208 969.518 418.521 970.561 415.301 970.056C412.087 969.551 409.217 967.808 406.451 966.105C387.622 954.528 368.794 942.946 349.965 931.37C338.316 924.205 326.66 917.04 315.01 909.869C309.146 917.222 312.23 928.409 318.101 935.755C325.377 944.85 347.147 957.094 341.808 971.397C338.043 981.483 315.146 981.937 306.477 983.841L306.483 983.867Z" fill="#52D5B5"/>
<path d="M412.891 1069.88C410.319 1068.04 408.666 1065.2 407.092 1062.46C397.924 1046.51 388.749 1030.55 379.581 1014.6C376.251 1008.8 372.921 1003.01 369.506 997.257C368.262 995.165 367.012 993.079 365.761 990.993C353.516 970.594 322.021 933.935 329.025 929.795C336.029 925.649 348.993 945.498 360.105 951.626C376.75 960.812 394.885 967.296 410.798 977.694C426.711 988.097 440.725 1003.67 442.915 1022.51C443.311 1025.9 443.285 1029.45 441.833 1032.54C440.382 1035.62 437.201 1038.08 433.799 1037.83C427.495 1037.36 425.402 1029.42 423.743 1023.34C419.901 1009.28 409.554 997.128 396.265 991.064C401.993 993.675 407.533 1009.4 409.807 1014.94C413.215 1023.23 415.541 1031.79 416.578 1040.7C417.413 1047.86 419.603 1051.94 422.325 1058.54C425.162 1065.41 422.176 1076.56 412.891 1069.88Z" fill="#52D5B5"/>
<path d="M427.612 940.983C419.72 933.63 413.519 924.205 404.131 918.88C390.505 911.152 371.865 913.056 360.792 901.985C357.65 898.843 355.35 894.043 357.209 890.014C359.645 884.728 367.019 884.449 372.766 885.46C400.386 890.338 426.193 906.319 454.196 904.81C462.359 904.369 470.42 902.426 478.596 902.426C486.773 902.426 500.703 902.27 500.625 911.152C500.541 920.033 481.058 924.982 469.7 922.631C466.428 921.95 463.092 920.739 459.826 921.445C456.561 922.151 453.697 925.934 455.433 928.791C456.982 931.337 460.662 931.194 463.61 930.741C474.676 929.037 485.736 927.334 496.803 925.623C502.867 924.691 510.843 924.781 513.02 930.501C514.439 934.226 512.204 938.54 508.912 940.801C505.621 943.062 501.532 943.755 497.587 944.39C474.91 948.05 446.764 959.024 427.605 940.983H427.612Z" fill="#52D5B5"/>
<path d="M309.328 872.245C303.173 870.697 295.91 867.166 295.929 860.837C295.942 857.475 298.274 854.424 301.248 852.837C304.222 851.25 307.721 850.932 311.084 851.153C322.234 851.878 332.413 858.019 343.518 859.257C363.701 861.498 381.83 847.505 401.624 842.971C414.485 840.03 427.884 841.144 441.023 842.278C455.31 843.509 469.59 844.739 483.877 845.97C487.499 846.281 491.691 846.942 493.472 850.097C495.306 853.336 493.356 857.663 490.226 859.684C487.097 861.705 483.177 861.984 479.451 862.094C461.336 862.638 443.136 860.52 425.635 855.83C422.778 855.065 419.785 854.223 416.914 854.91C414.044 855.596 411.44 858.427 412.165 861.284C412.956 864.387 416.746 865.456 419.914 865.981C430.845 867.801 441.775 869.615 452.705 871.435C476.737 875.432 502.258 879.28 524.773 870.004C529.6 868.015 534.311 865.417 539.507 864.912C544.703 864.407 550.69 866.765 552.258 871.727C553.554 875.821 551.383 880.388 548.04 883.096C544.697 885.803 540.414 887.021 536.222 887.999C495.643 897.451 453.256 890.26 412.217 883.05C394.872 879.999 374.67 873.217 357.041 874.486C340.486 875.672 325.817 876.378 309.328 872.232V872.245Z" fill="#52D5B5"/>
<path d="M242.359 814.876C231.131 814.934 220.045 809.11 213.741 799.847C211.182 796.09 209.354 791.639 209.678 787.105C210.009 782.577 212.886 778.062 217.252 776.766C223.012 775.062 228.85 779.202 232.751 783.749C236.658 788.303 240.04 793.751 245.553 796.129C255.713 800.508 266.883 792.378 277.949 792.184C287.13 792.022 295.566 797.359 304.702 798.266C317.9 799.575 330.158 791.562 340.046 782.752C349.933 773.941 359.146 763.7 371.476 758.841C375.377 757.299 379.718 756.347 383.774 757.436C387.829 758.517 391.419 762.106 391.38 766.291C391.335 771.35 386.527 774.887 382.225 777.576C371.483 784.28 360.74 790.985 350.004 797.69C335.86 806.519 320.498 815.673 303.847 814.669C301.294 814.513 298.702 814.124 296.201 814.649C293.7 815.174 291.232 816.91 290.785 819.423C290.318 822.067 292.281 824.651 294.704 825.811C297.134 826.97 299.92 827.029 302.609 827.061C315.554 827.236 328.5 827.411 341.445 827.586C345.572 827.644 349.868 827.735 353.555 829.6C357.241 831.466 360.086 835.657 359.004 839.628C357.449 845.323 349.952 846.443 344.03 846.359C331.176 846.184 318.327 845.646 305.505 844.746C296.92 844.143 285.089 844.992 277.049 841.261C268.898 837.471 270.103 829.782 266.928 822.643C262.296 812.22 251.754 814.824 242.353 814.869L242.359 814.876Z" fill="#52D5B5"/>
<path d="M379.517 838.961C375.927 839.194 371.897 839.285 369.241 836.869C364.854 832.878 366.882 824.515 362.094 821.024C359.217 818.925 355.272 819.644 351.708 819.663C347.684 819.683 342.605 817.519 343.797 812.965C344.14 811.644 344.983 810.503 346.065 809.668L369.655 791.335C375.195 787.027 381.162 782.551 388.16 781.936C395.261 781.314 402.077 784.812 409.185 785.356C421.307 786.276 432.244 778.684 441.995 771.448C459.787 758.252 477.585 745.05 495.377 731.854C499.316 728.933 503.437 725.92 508.62 725.888C511.251 725.868 513.836 726.892 515.508 728.92C519.784 734.121 515.424 741.364 511.031 746.183C481.557 778.509 402.012 803.851 400.075 813.01C398.144 822.164 448.364 823.136 448.364 823.136C450.574 823.602 452.666 824.593 454.306 826.141C460.824 832.282 454.306 839.868 447.716 840.406C442.494 840.833 439.002 837.834 434.324 836.597C429.231 835.249 424.093 836.059 418.858 836.403C405.744 837.264 392.624 838.119 379.51 838.974L379.517 838.961Z" fill="#52D5B5"/>
<path d="M455.154 800.786C480.216 789.521 502.375 771.888 518.948 750.018C523.561 743.929 528.071 737.244 534.978 733.953C541.885 730.662 552.012 732.67 554.305 739.952C556.197 745.957 551.934 752.305 546.731 755.862C541.522 759.424 535.289 761.29 530.151 764.944C525.006 768.597 518.676 778.049 523.186 781.055C527.695 784.06 576.276 749.442 602.821 733.636C608.626 730.183 615.786 726.652 621.786 729.762C628.297 733.137 628.952 742.821 625.012 748.995C621.073 755.168 614.14 758.654 607.538 761.847C583.889 773.294 560.234 784.734 536.585 796.181C522.577 802.957 508.355 809.882 496.828 820.324C488.412 827.949 476.62 839.382 466.409 828.299C462.009 823.524 458.588 819.009 453.619 814.63C447.451 809.195 446.809 804.55 455.154 800.793V800.786Z" fill="#52D5B5"/>
<path d="M422.312 751.845C438.386 744 434.946 717.79 449.213 707.024C456.262 701.705 466.312 701.368 472.94 695.532C481.829 687.706 480.877 673.889 479.477 662.151C477.307 643.954 475.81 625.433 478.998 607.386C482.186 589.338 490.524 571.608 504.986 560.297C517.186 550.755 532.6 546.505 547.567 542.476C563.143 538.278 578.712 534.081 594.288 529.883C598.13 528.846 602.672 527.952 605.724 530.492C609.197 533.388 608.367 539.289 605.238 542.547C602.108 545.806 597.502 547.101 593.128 548.261C574.993 553.074 556.858 557.894 538.729 562.707C533.475 564.1 527.378 566.296 525.965 571.536C524.384 577.405 529.71 582.575 533.85 587.032C548.798 603.136 552.653 628.536 543.155 648.327C541.146 652.511 538.438 656.599 534.375 658.86C530.306 661.114 524.631 660.998 521.514 657.551C518.307 654.008 518.799 648.592 519.493 643.87C521.022 633.369 522.557 622.868 524.086 612.374C524.644 608.532 525.188 604.509 523.885 600.856C522.583 597.202 518.773 594.119 514.983 595.006C510.098 596.153 508.718 602.307 508.297 607.295C505.86 635.805 503.256 665.02 491.004 690.893C478.201 717.926 455.096 746.073 432.115 765.209C425.895 770.385 413.863 780.393 405.479 774.155C389.138 761.996 415.735 755.065 422.325 751.851L422.312 751.845Z" fill="#52D5B5"/>
<path d="M488.049 719.027C486.475 713.638 492.248 708.986 497.554 707.114C502.861 705.242 509.191 703.817 511.679 698.784C514.672 692.727 510.065 685.387 511.601 678.812C512.709 674.089 516.869 670.591 521.372 668.752C525.875 666.912 530.786 666.4 535.561 665.48C551.474 662.41 566.415 654.474 577.844 643.015C583.714 637.132 588.904 630.188 596.407 626.599C603.91 623.01 614.808 624.546 617.924 632.235C620.004 637.366 617.814 643.423 614.011 647.445C610.201 651.468 605.037 653.885 600.003 656.204C590.323 660.674 580.643 665.137 570.97 669.607C566.318 671.757 561.523 674.005 558.134 677.84C554.746 681.675 553.132 687.557 555.692 691.988C559.003 697.715 567.51 698.194 573.412 695.182C579.315 692.176 583.526 686.754 588.418 682.297C593.31 677.84 599.88 674.109 606.307 675.709C608.458 676.247 610.531 677.445 611.633 679.363C613.7 682.958 611.568 687.752 608.179 690.148C604.791 692.545 600.521 693.219 596.459 694.1C592.105 695.039 587.556 696.452 584.66 699.833C581.764 703.208 581.459 709.11 585.12 711.649C590.116 715.121 596.569 709.958 600.055 704.977C603.54 699.995 608.439 693.977 614.289 695.661C618.073 696.756 620.257 701.038 620.004 704.957C619.751 708.876 617.568 712.42 615.041 715.432C607.37 724.572 595.785 730.344 583.844 730.966C569.214 731.731 558.802 722.422 545.157 719.915C526.678 716.514 489.352 726.522 488.049 719.027Z" fill="#52D5B5"/>
<path d="M548.869 597.921C544.949 591.806 540.978 583.871 544.891 577.749C547.528 573.622 552.88 572.119 557.785 571.996C562.689 571.867 567.633 572.774 572.479 572.009C581.291 570.623 588.211 564.093 595.526 559.008C602.841 553.923 615.294 550.094 620.432 554.532C624.455 559.572 607.875 578.928 595.714 584.648C592.947 585.95 589.98 587.019 587.731 589.092C585.483 591.165 584.161 594.643 585.619 597.325C587.258 600.331 591.561 600.849 594.761 599.606C597.962 598.362 600.476 595.868 603.314 593.944C606.152 592.013 609.806 590.621 612.981 591.929C616.868 593.536 618.229 598.699 616.888 602.683C615.546 606.667 612.248 609.64 608.918 612.212C601.597 617.867 586.209 629.974 576.406 629.689C563.622 629.314 554.61 606.887 548.863 597.915L548.869 597.921Z" fill="#52D5B5"/>
<path d="M646.484 681.598C641.91 690.816 629.988 698.408 621.604 692.422C614.218 687.149 615.682 675.314 621.164 668.091C626.645 660.868 634.893 656.223 640.88 649.415C646.873 642.607 650.074 631.542 644.003 624.805C640.174 620.555 634.044 619.512 628.777 617.271C623.509 615.023 618.3 609.757 620.108 604.341C621.565 599.975 626.846 598.148 631.466 598.142C636.085 598.135 640.75 599.327 645.266 598.388C657.803 595.784 661.296 580.113 664.587 567.773C671.423 542.139 700.689 498.27 711.263 505.629C722.122 513.96 706.229 544.335 702.199 563.445C698.22 582.29 694.145 601.432 685.009 618.398C678.388 630.7 667.989 637.962 659.922 648.664C652.691 658.257 651.778 670.935 646.484 681.598Z" fill="#52D5B5"/>
<path d="M661.127 534.949C659.52 548.371 657.823 562.118 651.693 574.18C649.873 577.762 647.333 581.416 643.445 582.478C638.158 583.916 632.677 579.628 630.824 574.484C628.971 569.341 629.787 563.666 630.63 558.27C633.493 539.827 636.357 521.39 639.221 502.948C641.268 489.778 643.536 476.044 651.447 465.297C659.358 454.557 674.785 448.047 686.506 454.453C696.082 459.687 700.112 471.821 698.946 482.646C697.786 493.47 692.467 503.349 687.245 512.917C685.515 516.085 683.668 519.382 680.636 521.332C677.597 523.288 673.003 523.34 670.82 520.464C668.455 517.342 674.831 494.332 666.829 502.125C660.784 508.007 662.041 527.305 661.127 534.955V534.949Z" fill="#52D5B5"/>
<path d="M728.038 446.809C724.014 455.095 718.345 462.59 711.451 468.718C708.25 471.562 704.68 474.256 702.847 478.124C701.013 481.991 701.739 487.497 705.613 489.337C709.851 491.352 714.58 488.009 718.073 484.88C725.355 478.357 732.638 471.827 739.92 465.304C745.791 460.044 751.661 454.784 757.531 449.523C763.479 444.192 769.602 438.627 772.789 431.314C775.977 424 775.387 414.406 769.245 409.295C761.444 402.804 749.581 406.451 740.737 411.439C730.098 417.444 720.34 425.017 711.892 433.827C709.663 436.153 707.466 438.66 706.507 441.73C705.549 444.801 706.164 448.578 708.756 450.489C712.436 453.203 716.097 450.761 719.537 449.141C719.284 449.258 729.113 444.581 728.038 446.796V446.809Z" fill="#52D5B5"/>
<path d="M670.801 765.494C674.947 767.327 679.975 765.999 684.109 763.959C701.512 755.388 711.185 736.304 715.934 717.544C720.684 698.784 721.753 679.123 728.057 660.816C730.72 653.088 735.21 644.867 743.121 642.717C752.872 640.067 762.189 647.925 768.539 655.77C784.905 676.007 795.758 700.63 799.645 726.335C800.708 733.376 803.138 742.413 810.265 742.886C813.945 743.132 817.372 740.573 819.154 737.354C820.942 734.134 821.376 730.364 821.584 726.691C823.761 688.192 802.159 649.331 768.26 630.765C758.794 625.582 748.168 621.611 741.268 613.326C735.391 606.271 733.014 596.839 732.903 587.667C732.793 578.494 734.763 569.444 736.726 560.478C739.253 548.922 746.367 538.894 748.9 527.337C751.92 515.042 753.306 505.182 747.371 497.039C744.715 493.392 739.13 492.919 735.093 494.947C731.057 496.975 728.316 500.874 726.185 504.845C714.982 525.679 716.349 550.671 712.39 573.979C701.985 635.286 655.024 683.748 632.839 741.862C630.15 748.91 628.673 758.621 635.185 762.456C639.007 764.704 644.106 763.551 647.625 760.849C651.143 758.148 653.443 754.203 655.646 750.361C671.572 722.603 687.491 694.851 703.417 667.093C704.428 691.606 695 716.371 677.928 734.043C673.58 738.539 668.65 742.769 666.142 748.489C663.635 754.209 664.555 762.08 670.03 765.112C670.282 765.248 670.535 765.377 670.788 765.488L670.801 765.494Z" fill="#52D5B5"/>
<path d="M731.821 765.047C728.238 767.547 724.208 769.666 719.854 769.99C715.5 770.314 710.764 768.519 708.6 764.73C706.281 760.674 707.408 755.414 709.928 751.482C712.455 747.55 716.168 744.564 719.479 741.266C732.087 728.686 739 710.625 737.996 692.869C737.607 685.983 736.098 679.032 737.355 672.25C738.612 665.467 743.769 658.665 750.689 658.536C759.261 658.374 764.483 667.624 767.755 675.521C775.634 694.521 783.506 713.521 791.384 732.521C793.613 737.891 795.868 743.423 795.946 749.228C796.023 755.038 793.399 761.264 788.145 763.777C781.51 766.951 773.249 762.955 769.103 756.891C764.956 750.828 763.848 743.281 762.604 736.045C761.36 728.815 759.695 721.249 754.777 715.788C758.179 719.565 752.678 737.243 750.805 741.571C746.756 750.938 740.218 759.184 731.828 765.047H731.821Z" fill="#52D5B5"/>
<path d="M832.637 728.894C825.672 703.947 818.707 679 811.742 654.053C810.187 648.489 809.61 640.786 815.001 638.662C821.027 636.291 826.91 644.239 833.311 643.287C840.717 642.186 841.481 631.38 847.319 626.71C852.353 622.68 860.426 624.546 864.573 629.482C868.72 634.412 869.53 641.415 868.564 647.776C867.599 654.137 865.078 660.143 863.2 666.297C858.489 681.766 857.893 698.46 861.489 714.221C863.932 724.91 873.845 747.343 859.351 753.925C843.892 760.94 835.644 739.679 832.631 728.887L832.637 728.894Z" fill="#52D5B5"/>
<path d="M876.676 743.281C873.151 736.453 873.547 728.349 874.026 720.679C874.544 712.446 875.063 704.212 875.575 695.979C875.84 691.762 876.132 687.434 877.881 683.586C879.631 679.738 883.194 676.415 887.425 676.188C893.878 675.845 900.351 682.453 906.007 679.337C909.059 677.653 910.193 673.785 912.888 671.576C918.02 667.372 926.54 671.667 928.464 678.002C930.388 684.338 927.615 691.153 923.993 696.704C920.372 702.256 915.804 707.309 913.504 713.521C909.422 724.547 915.661 744.849 905.178 752.875C896.464 759.547 881.011 751.677 876.67 743.268L876.676 743.281Z" fill="#52D5B5"/>
<path d="M792.907 608.785C797.883 614.136 804.369 620.776 801.505 627.493C798.784 633.881 789.687 634.25 783.13 631.911C765.286 625.55 753.566 607.353 750.767 588.664C747.968 569.982 752.808 550.936 759.857 533.394C761.477 529.365 763.388 525.167 766.99 522.725C770.593 520.282 776.366 520.555 778.471 524.357C779.774 526.715 779.333 529.598 779.489 532.28C779.644 534.968 780.985 538.097 783.661 538.427C788.598 539.03 788.981 530.861 792.952 527.875C796.49 525.219 801.92 527.894 803.837 531.872C805.755 535.849 805.308 540.487 805.217 544.899C804.822 563.348 811.684 581.856 824.02 595.615C826.819 598.737 829.916 601.672 831.918 605.345C833.92 609.025 834.639 613.734 832.488 617.329C829.877 621.676 823.806 622.926 818.973 621.372C814.139 619.817 810.336 616.105 807.032 612.263C800.455 604.639 795.045 596.023 791.028 586.799C789.512 583.313 788.151 579.673 785.657 576.803C776.327 566.056 777.681 580.502 779.748 586.617C782.514 594.812 787.011 602.43 792.901 608.772L792.907 608.785Z" fill="#52D5B5"/>
<path d="M800.883 492.524C801.803 499.98 802.114 508.965 796.036 513.409C791.488 516.733 784.899 515.91 780.117 512.936C775.329 509.963 771.94 505.26 768.675 500.674C765.215 495.815 761.755 490.95 758.295 486.092C753.993 480.048 749.471 472.889 751.427 465.744C753.462 458.327 761.412 454.537 768.105 450.715C781.167 443.253 792.22 432.337 799.827 419.388C802.133 415.456 804.187 411.271 807.459 408.09C810.731 404.909 815.642 402.901 819.938 404.469C824.13 405.998 826.579 410.513 827.162 414.931C827.745 419.349 826.851 423.799 826.378 428.23C823.923 451.104 833.467 474.924 851.045 489.823C856.105 494.111 861.755 497.681 866.77 502.028C871.784 506.374 876.249 511.712 877.959 518.119C879.67 524.519 878.056 532.111 872.776 536.134C867.495 540.157 858.554 538.997 855.599 533.07C853.96 529.786 854.317 525.905 853.688 522.291C851.88 511.906 842.44 504.93 834.613 497.836C826.793 490.743 820.003 482.516 814.489 473.524C812.383 470.091 804.66 447.58 802.205 446.977C794.501 445.092 800.514 489.441 800.896 492.537L800.883 492.524Z" fill="#52D5B5"/>
<path d="M820.728 584.693C814.826 581.448 813.886 573.24 815.454 566.704C817.022 560.168 820.346 553.942 820.346 547.218C820.346 539.911 816.433 533.271 813.31 526.663C810.187 520.056 807.77 512.263 810.744 505.591C813.705 502.928 818.467 503.22 821.927 505.195C825.387 507.171 827.849 510.469 830.207 513.669C836.881 522.725 843.548 531.781 850.222 540.831C855.677 548.235 861.171 555.704 864.975 564.074C868.778 572.443 870.812 581.882 868.998 590.886C868.149 595.097 866.368 599.275 863.122 602.1C859.876 604.924 854.964 606.084 851.122 604.14C845.881 601.484 844.598 594.585 844.993 588.736C845.375 583.08 847.306 575.579 844.04 570.364C841.805 566.801 837.263 564.132 834.691 568.311C832.806 571.368 836.162 577.108 833.933 580.962C831.348 585.425 825.322 587.226 820.728 584.7V584.693Z" fill="#52D5B5"/>
<path d="M909.862 646.027C909.811 654.876 902.411 664.256 893.639 662.915C885.112 661.613 880.946 651.954 878.905 643.598C875.724 630.57 873.897 617.213 873.475 603.816C873.119 592.46 873.812 580.845 877.978 570.273C882.138 559.701 890.205 550.211 900.973 546.505C911.741 542.8 925.14 546.033 931.393 555.529C937.645 565.033 935.669 577.503 937.729 588.677C942.686 615.554 970.164 632.456 980.796 657.642C983.343 663.679 984.23 671.991 978.729 675.573C973.261 679.136 965.706 674.789 962.596 669.063C959.486 663.343 959.007 656.554 956.428 650.574C953.85 644.595 947.571 639.102 941.351 641.078C945.453 646.74 949.722 652.848 950.001 659.832C950.286 666.815 944.597 674.459 937.658 673.448C933.388 672.826 930.084 669.166 928.561 665.137C927.045 661.108 926.967 656.709 926.786 652.408C926.255 639.873 924.648 627.39 922.004 615.127C920.974 610.372 919.711 605.481 916.666 601.685C913.614 597.889 908.301 595.479 903.74 597.209C885.604 604.075 909.921 634.982 909.856 646.014L909.862 646.027Z" fill="#52D5B5"/>
<path d="M858.502 464.798C857.828 470.797 852.14 476.634 846.282 475.111C840.069 473.498 838.261 465.725 837.594 459.357C835.981 443.92 834.361 428.483 832.747 413.039C831.024 396.553 829.294 380.06 827.571 363.573C826.923 357.361 826.676 350.067 831.465 346.037C835.89 342.313 843.03 343.427 847.339 347.288C851.647 351.149 853.584 357.011 854.388 362.731C855.185 368.451 855.023 374.281 856.008 379.976C859.118 397.939 874.719 413.039 892.822 415.598C896.172 416.071 899.638 416.168 902.768 417.451C905.897 418.733 908.696 421.61 908.58 424.985C908.45 428.833 904.569 431.657 900.746 432.188C896.924 432.719 893.088 431.592 889.291 430.873C885.494 430.154 881.302 429.914 878.037 431.962C882.916 443.091 887.645 454.278 892.22 465.537C895.349 473.233 898.42 481.006 900.04 489.156C901.232 495.167 900.532 503.122 894.701 505.059C890.969 506.303 886.784 504.152 884.419 501.017C882.047 497.882 881.063 493.956 880.032 490.166C874.512 469.91 866.135 450.437 855.224 432.486C855.237 437.772 854.181 443.985 854.965 449.167C855.794 454.647 859.202 458.929 858.502 464.811V464.798Z" fill="#52D5B5"/>
<path d="M914.054 524.623C910.439 525.109 906.856 526.139 903.215 525.892C899.574 525.653 895.705 523.722 894.623 520.25C893.619 517.031 895.362 513.468 897.98 511.33C900.597 509.192 903.928 508.175 907.167 507.203C920.087 503.336 935.157 499.76 946.191 507.508C953.979 512.975 957.387 522.569 961.812 530.978C972.062 550.463 989.368 565.337 1007.64 577.665C1025.92 589.999 1045.56 600.292 1063.23 613.468C1080.91 626.645 1096.88 643.293 1104.29 664.023C1106.07 669.017 1106.81 675.709 1102.35 678.598C1099 680.768 1094.31 679.35 1091.45 676.571C1088.58 673.792 1087.04 669.982 1085.28 666.413C1076.41 648.482 1060.58 634.898 1043.75 624.028C1026.92 613.158 1008.71 604.496 992.083 593.309C976.002 582.491 961.696 569.632 954.621 551.364C948.329 535.117 932.326 522.161 914.054 524.61V524.623Z" fill="#52D5B5"/>
<path d="M910.446 480.806C906.098 474.6 918.24 464.345 926.054 460.005C933.868 455.665 943.554 454.816 952.009 457.731C961.929 461.151 969.464 469.126 976.578 476.822C985.805 486.804 995.038 496.787 1004.26 506.763C1008.48 511.317 1012.88 516.279 1013.72 522.414C1014.57 528.549 1009.87 535.765 1003.71 535.02C999.78 534.547 996.904 531.237 994.435 528.16C984.567 515.878 974.92 498.834 961.838 489.603C956.195 485.619 951.854 482.011 942.362 481.492C932.87 480.974 914.793 487.005 910.446 480.799V480.806Z" fill="#52D5B5"/>
<path d="M923.035 455.023C916.51 456.455 908.385 457.342 904.381 452.011C900.565 446.932 903.591 439.12 908.923 435.647C914.255 432.175 920.974 431.858 927.337 431.65C917.663 421.176 911.372 407.649 909.597 393.521C908.735 386.654 908.787 379.276 904.971 373.497C901.154 367.719 891.384 365.342 887.561 371.114C884.885 375.149 886.57 380.461 887.393 385.223C888.222 389.984 886.997 396.306 882.229 397.207C879.436 397.732 876.624 395.924 875.102 393.534C873.579 391.143 873.067 388.267 872.588 385.475C868.344 360.684 864.1 335.899 859.856 311.108C859.189 307.221 858.722 302.654 861.528 299.869C865.402 296.027 872.458 299.02 875.102 303.781C877.745 308.549 877.7 314.282 879.021 319.568C883.11 335.919 899.541 345.934 915.318 351.978C931.095 358.028 948.387 362.342 960.38 374.223C965.026 378.822 968.635 384.368 973.235 389.012C980.122 395.97 988.941 400.653 997.603 405.227C1008.75 411.109 1019.9 416.997 1031.06 422.879C1034 424.434 1037.03 426.053 1039.12 428.632C1041.2 431.21 1042.13 435.038 1040.42 437.889C1038.76 440.674 1035.07 441.717 1031.85 441.212C1028.64 440.707 1025.77 438.964 1023 437.26C1004.17 425.684 985.345 414.101 966.516 402.525C954.867 395.361 943.211 388.196 931.561 381.025C925.697 388.377 928.782 399.565 934.652 406.911C941.928 416.006 963.698 428.249 958.359 442.553C954.595 452.639 931.697 453.093 923.028 454.997L923.035 455.023Z" fill="#52D5B5"/>
<path d="M1029.44 541.038C1026.87 539.192 1025.22 536.361 1023.64 533.621C1014.48 517.665 1005.3 501.71 996.132 485.755C992.802 479.957 989.472 474.166 986.057 468.413C984.813 466.321 983.563 464.235 982.312 462.149C970.067 441.75 938.572 405.091 945.576 400.951C952.58 396.806 965.544 416.654 976.656 422.782C993.301 431.968 1011.44 438.453 1027.35 448.85C1043.26 459.253 1057.28 474.827 1059.47 493.671C1059.86 497.053 1059.84 500.609 1058.38 503.692C1056.93 506.776 1053.75 509.238 1050.35 508.985C1044.05 508.512 1041.95 500.577 1040.29 494.5C1036.45 480.437 1026.11 468.284 1012.82 462.22C1018.54 464.831 1024.08 480.553 1026.36 486.092C1029.77 494.39 1032.09 502.947 1033.13 511.855C1033.96 519.019 1036.15 523.101 1038.88 529.695C1041.71 536.562 1038.73 547.717 1029.44 541.038Z" fill="#52D5B5"/>
<path d="M1044.16 412.139C1036.26 404.786 1030.06 395.361 1020.68 390.036C1007.05 382.308 988.409 384.212 977.336 373.141C974.194 370 971.894 365.199 973.753 361.17C976.19 355.884 983.563 355.605 989.31 356.616C1016.93 361.494 1042.74 377.475 1070.74 375.966C1078.9 375.525 1086.96 373.582 1095.14 373.582C1103.32 373.582 1117.25 373.426 1117.17 382.308C1117.09 391.189 1097.6 396.138 1086.24 393.787C1082.97 393.107 1079.64 391.895 1076.37 392.601C1073.11 393.307 1070.24 397.091 1071.98 399.947C1073.53 402.493 1077.21 402.351 1080.15 401.897C1091.22 400.193 1102.28 398.49 1113.35 396.78C1119.41 395.847 1127.39 395.937 1129.56 401.658C1130.98 405.382 1128.75 409.697 1125.46 411.958C1122.17 414.218 1118.08 414.912 1114.13 415.546C1091.45 419.206 1063.31 430.18 1044.15 412.139H1044.16Z" fill="#52D5B5"/>
<path d="M925.879 343.407C919.724 341.859 912.461 338.328 912.48 331.999C912.493 328.637 914.826 325.586 917.799 323.999C920.773 322.412 924.272 322.094 927.635 322.315C938.785 323.04 948.964 329.181 960.07 330.419C980.252 332.66 998.381 318.668 1018.17 314.133C1031.04 311.192 1044.43 312.306 1057.57 313.44C1071.86 314.671 1086.14 315.901 1100.43 317.132C1104.05 317.443 1108.24 318.104 1110.02 321.259C1111.86 324.498 1109.91 328.825 1106.78 330.846C1103.65 332.867 1099.73 333.146 1096 333.256C1077.89 333.8 1059.69 331.682 1042.19 326.992C1039.33 326.227 1036.34 325.385 1033.47 326.072C1030.6 326.759 1027.99 329.59 1028.72 332.446C1029.51 335.549 1033.3 336.618 1036.47 337.143C1047.4 338.963 1058.33 340.777 1069.26 342.597C1093.29 346.594 1118.81 350.442 1141.32 341.166C1146.15 339.177 1150.86 336.579 1156.06 336.074C1161.25 335.569 1167.24 337.927 1168.81 342.889C1170.1 346.983 1167.93 351.55 1164.59 354.258C1161.25 356.966 1156.96 358.183 1152.77 359.162C1112.19 368.613 1069.81 361.422 1028.77 354.212C1011.42 351.161 991.221 344.379 973.592 345.648C957.037 346.834 942.368 347.54 925.879 343.394V343.407Z" fill="#52D5B5"/>
<path d="M858.904 286.038C847.675 286.096 836.589 280.273 830.285 271.009C827.726 267.252 825.899 262.802 826.223 258.267C826.553 253.739 829.43 249.224 833.797 247.928C839.557 246.224 845.395 250.364 849.295 254.911C853.202 259.465 856.584 264.913 862.098 267.291C872.257 271.67 883.427 263.54 894.494 263.346C903.675 263.184 912.111 268.522 921.246 269.428C934.444 270.737 946.703 262.724 956.59 253.914C966.477 245.104 975.691 234.862 988.021 230.003C991.921 228.462 996.262 227.509 1000.32 228.598C1004.37 229.679 1007.96 233.268 1007.92 237.453C1007.88 242.512 1003.07 246.049 998.769 248.738C988.027 255.443 977.285 262.147 966.549 268.852C952.405 277.681 937.042 286.835 920.391 285.831C917.838 285.675 915.247 285.287 912.746 285.811C910.245 286.343 907.776 288.072 907.329 290.586C906.863 293.229 908.826 295.813 911.249 296.973C913.679 298.132 916.465 298.191 919.153 298.223C932.099 298.398 945.044 298.573 957.99 298.748C962.117 298.806 966.413 298.897 970.099 300.763C973.786 302.628 976.63 306.819 975.548 310.79C973.993 316.485 966.497 317.605 960.575 317.521C947.72 317.346 934.872 316.809 922.05 315.908C913.465 315.306 901.634 316.154 893.593 312.423C885.442 308.633 886.648 300.944 883.473 293.805C878.84 283.382 868.299 285.986 858.897 286.032L858.904 286.038Z" fill="#52D5B5"/>
<path d="M996.068 310.117C992.478 310.35 988.448 310.441 985.792 308.025C981.405 304.034 983.433 295.671 978.645 292.179C975.768 290.081 971.823 290.8 968.259 290.819C964.236 290.839 959.156 288.675 960.348 284.121C960.691 282.799 961.534 281.659 962.616 280.824L986.206 262.491C991.746 258.183 997.713 253.707 1004.71 253.091C1011.81 252.469 1018.63 255.968 1025.74 256.512C1037.86 257.432 1048.8 249.839 1058.55 242.603C1076.34 229.408 1094.14 216.206 1111.93 203.01C1115.87 200.088 1119.99 197.076 1125.17 197.044C1127.8 197.024 1130.39 198.048 1132.06 200.075C1136.34 205.277 1131.97 212.52 1127.58 217.339C1098.11 249.664 1018.56 275.006 1016.63 284.166C1014.7 293.32 1064.92 294.291 1064.92 294.291C1067.12 294.758 1069.22 295.749 1070.86 297.297C1077.37 303.438 1070.86 311.024 1064.27 311.562C1059.05 311.989 1055.55 308.99 1050.87 307.753C1045.78 306.405 1040.64 307.215 1035.41 307.558C1022.3 308.42 1009.17 309.275 996.061 310.13L996.068 310.117Z" fill="#52D5B5"/>
<path d="M1071.71 271.942C1096.77 260.677 1118.93 243.043 1135.5 221.174C1140.11 215.084 1144.62 208.399 1151.53 205.108C1158.44 201.817 1168.56 203.826 1170.86 211.107C1172.75 217.112 1168.48 223.46 1163.28 227.017C1158.07 230.58 1151.84 232.445 1146.7 236.099C1141.56 239.753 1135.23 249.204 1139.74 252.21C1144.25 255.216 1192.83 220.597 1219.37 204.791C1225.18 201.338 1232.34 197.808 1238.34 200.917C1244.85 204.292 1245.5 213.977 1241.56 220.15C1237.62 226.324 1230.69 229.809 1224.09 233.003C1200.44 244.449 1176.78 255.889 1153.14 267.336C1139.13 274.112 1124.91 281.037 1113.38 291.479C1104.96 299.104 1093.17 310.538 1082.96 299.454C1078.56 294.68 1075.14 290.164 1070.17 285.785C1064 280.35 1063.36 275.706 1071.71 271.948V271.942Z" fill="#52D5B5"/>
<path d="M1038.86 223.001C1054.94 215.156 1051.5 188.946 1065.76 178.179C1072.81 172.861 1082.86 172.524 1089.49 166.688C1098.38 158.862 1097.43 145.045 1096.03 133.306C1093.86 115.11 1092.36 96.5891 1095.55 78.5414C1098.74 60.4937 1107.08 42.7635 1121.54 31.4529C1133.74 21.9108 1149.15 17.6612 1164.12 13.6319C1179.69 9.43417 1195.26 5.23648 1210.84 1.03874C1214.68 0.0022583 1219.22 -0.891739 1222.27 1.64763C1225.75 4.54329 1224.92 10.4447 1221.79 13.7032C1218.66 16.9616 1214.05 18.2572 1209.68 19.4168C1191.54 24.2299 1173.41 29.0495 1155.28 33.8627C1150.03 35.2555 1143.93 37.4515 1142.52 42.6922C1140.94 48.5613 1146.26 53.7307 1150.4 58.1876C1165.35 74.2919 1169.2 99.6921 1159.71 119.482C1157.7 123.667 1154.99 127.755 1150.93 130.016C1146.86 132.27 1141.18 132.153 1138.07 128.707C1134.86 125.164 1135.35 119.748 1136.04 115.026C1137.57 104.525 1139.11 94.0238 1140.64 83.5295C1141.19 79.688 1141.74 75.6652 1140.44 72.0116C1139.13 68.358 1135.32 65.2745 1131.53 66.162C1126.65 67.3086 1125.27 73.4627 1124.85 78.4508C1122.41 106.96 1119.81 136.176 1107.55 162.049C1094.75 189.082 1071.65 217.229 1048.67 236.365C1042.45 241.541 1030.41 251.549 1022.03 245.311C1005.69 233.152 1032.29 226.22 1038.88 223.007L1038.86 223.001Z" fill="#52D5B5"/>
<path d="M1104.6 190.189C1103.03 184.8 1108.8 180.149 1114.11 178.276C1119.41 176.404 1125.74 174.979 1128.23 169.946C1131.22 163.889 1126.62 156.549 1128.15 149.974C1129.26 145.252 1133.42 141.754 1137.92 139.914C1142.43 138.074 1147.34 137.562 1152.11 136.642C1168.02 133.572 1182.97 125.636 1194.39 114.177C1200.27 108.295 1205.45 101.35 1212.96 97.7614C1220.46 94.1726 1231.36 95.7079 1234.48 103.397C1236.55 108.528 1234.37 114.585 1230.56 118.608C1226.75 122.63 1221.59 125.047 1216.55 127.366C1206.87 131.836 1197.19 136.299 1187.52 140.769C1182.87 142.92 1178.07 145.167 1174.69 149.002C1171.3 152.837 1169.68 158.719 1172.24 163.15C1175.55 168.877 1184.06 169.356 1189.96 166.344C1195.87 163.338 1200.08 157.916 1204.97 153.459C1209.86 149.002 1216.43 145.271 1222.86 146.871C1225.01 147.409 1227.08 148.607 1228.18 150.525C1230.25 154.12 1228.12 158.914 1224.73 161.311C1221.34 163.707 1217.07 164.381 1213.01 165.262C1208.66 166.201 1204.11 167.614 1201.21 170.995C1198.31 174.37 1198.01 180.272 1201.67 182.811C1206.67 186.283 1213.12 181.12 1216.61 176.139C1220.09 171.157 1224.99 165.139 1230.84 166.823C1234.62 167.918 1236.81 172.2 1236.55 176.119C1236.3 180.038 1234.12 183.582 1231.59 186.594C1223.92 195.735 1212.34 201.506 1200.39 202.128C1185.76 202.893 1175.35 193.584 1161.71 191.077C1143.23 187.676 1105.9 197.685 1104.6 190.189Z" fill="#52D5B5"/>
<path d="M1165.41 69.077C1161.49 62.9618 1157.52 55.0263 1161.44 48.9045C1164.07 44.7781 1169.42 43.2752 1174.33 43.1522C1179.23 43.0291 1184.18 43.9295 1189.02 43.1651C1197.84 41.7788 1204.76 35.249 1212.07 30.1637C1219.39 25.0785 1231.84 21.25 1236.98 25.6874C1241 30.7273 1224.42 50.0836 1212.26 55.8036C1209.49 57.1057 1206.52 58.1746 1204.28 60.2475C1202.03 62.3205 1200.71 65.7992 1202.16 68.4811C1203.8 71.4869 1208.1 72.0052 1211.31 70.7614C1214.51 69.5176 1217.02 67.0235 1219.86 65.0995C1222.7 63.1691 1226.35 61.7763 1229.53 63.0849C1233.41 64.6914 1234.77 69.8545 1233.43 73.8384C1232.09 77.8159 1228.79 80.7958 1225.46 83.3675C1218.14 89.0228 1202.75 101.13 1192.95 100.845C1180.17 100.469 1171.15 78.0426 1165.41 69.0706L1165.41 69.077Z" fill="#52D5B5"/>
</svg>
