<svg width="1244" height="1318" viewBox="0 0 1244 1318" fill="none" xmlns="http://www.w3.org/2000/svg">
<g clip-path="url(#clip0_199_487)">
<path d="M29.9337 91.0223C25.3594 81.8041 13.4378 74.2119 5.05374 80.1976C-2.33251 85.4707 -0.868222 97.306 4.61315 104.529C10.0945 111.752 18.3425 116.397 24.3293 123.205C30.316 130.013 33.5232 141.078 27.4522 147.815C23.623 152.064 17.4937 153.107 12.2262 155.349C6.95861 157.597 1.74936 162.863 3.55705 168.279C5.01486 172.645 10.2954 174.472 14.915 174.478C19.5282 174.478 24.1997 173.293 28.7157 174.232C41.2528 176.836 44.7451 192.507 48.0365 204.847C54.8721 230.481 84.1384 274.35 94.7124 266.991C105.572 258.66 89.6781 228.285 85.6481 209.174C81.6699 190.33 77.5945 171.188 68.4589 154.222C61.8372 141.92 51.4381 134.658 43.3715 123.956C36.1408 114.363 35.2272 101.685 29.9337 91.0223Z" fill="#52D5B5"/>
<path d="M44.5766 237.671C42.9697 224.249 41.2722 210.502 35.1429 198.44C33.3223 194.858 30.7824 191.204 26.8949 190.142C21.6079 188.704 16.1266 192.992 14.2735 198.136C12.4205 203.279 13.2368 208.954 14.0791 214.35C16.9429 232.793 19.8067 251.23 22.6705 269.672C24.7179 282.842 26.9856 296.576 34.8967 307.323C42.8078 318.063 58.2347 324.573 69.9555 318.167C79.5317 312.933 83.5617 300.799 82.3955 289.974C81.2357 279.15 75.9163 269.271 70.6941 259.703C68.9642 256.535 67.1176 253.238 64.0853 251.288C61.0466 249.332 56.4529 249.28 54.2694 252.156C51.9045 255.278 58.28 278.288 50.2782 270.495C44.2332 264.613 45.4901 245.315 44.5766 237.665V237.671Z" fill="#52D5B5"/>
<path d="M111.487 325.811C107.464 317.525 101.794 310.03 94.9005 303.902C91.6998 301.058 88.1297 298.364 86.2961 294.496C84.4625 290.629 85.1882 285.122 89.0628 283.283C93.3001 281.268 98.0299 284.611 101.522 287.74C108.805 294.263 116.087 300.793 123.37 307.316C129.24 312.576 135.11 317.836 140.98 323.097C146.928 328.428 153.051 333.992 156.239 341.306C159.426 348.62 158.837 358.214 152.695 363.325C144.894 369.816 133.03 366.169 124.186 361.181C113.548 355.176 103.79 347.603 95.3411 338.793C93.1122 336.467 90.9158 333.96 89.9569 330.89C88.998 327.819 89.6135 324.042 92.2051 322.131C95.8853 319.417 99.546 321.859 102.986 323.479C102.734 323.362 112.563 328.039 111.487 325.824V325.811Z" fill="#52D5B5"/>
<path d="M54.2566 7.1258C58.4033 5.29252 63.4311 6.62051 67.5649 8.66108C84.9679 17.2315 94.6413 36.3156 99.3905 55.0759C104.14 73.8362 105.209 93.4969 111.513 111.804C114.176 119.532 118.666 127.753 126.577 129.903C136.328 132.553 145.645 124.695 151.995 116.85C168.361 96.6128 179.214 71.99 183.101 46.2853C184.164 39.2437 186.594 30.2069 193.721 29.734C197.401 29.4878 200.828 32.0466 202.61 35.2662C204.398 38.4858 204.832 42.256 205.04 45.929C207.217 84.4277 185.615 123.289 151.716 141.855C142.25 147.038 131.624 151.009 124.724 159.294C118.847 166.348 116.47 175.78 116.359 184.953C116.249 194.126 118.219 203.176 120.182 212.141C122.709 223.698 129.823 233.726 132.357 245.283C135.376 257.578 136.762 267.438 130.827 275.58C128.171 279.228 122.586 279.7 118.549 277.673C114.513 275.645 111.772 271.745 109.641 267.774C98.4381 246.941 99.8052 221.949 95.8464 198.641C85.4409 137.321 38.4799 88.8652 16.2952 30.751C13.6064 23.703 12.1291 13.9925 18.6407 10.1575C22.4634 7.90963 27.5625 9.06272 31.0807 11.764C34.5989 14.4654 36.899 18.4105 39.1019 22.2519C55.0277 50.0101 70.947 77.7619 86.8728 105.52C87.8835 81.0073 78.4563 56.242 61.3837 38.57C57.0362 34.0743 52.1056 29.8441 49.5981 24.1241C47.0907 18.404 48.0107 10.5332 53.4856 7.50152C53.7383 7.36548 53.991 7.23592 54.2437 7.1258H54.2566Z" fill="#52D5B5"/>
<path d="M115.271 7.57277C111.688 5.07227 107.658 2.95396 103.304 2.63006C98.9497 2.30616 94.2135 4.10057 92.0494 7.8902C89.7299 11.9454 90.8573 17.2056 93.3776 21.1377C95.9045 25.0698 99.6171 28.0562 102.928 31.3535C115.536 43.9338 122.45 61.9944 121.445 79.7506C121.057 86.6367 119.547 93.5876 120.804 100.37C122.061 107.153 127.218 113.954 134.138 114.084C142.71 114.246 147.932 104.995 151.204 97.0987C159.083 78.0987 166.955 59.0988 174.834 40.0988C177.063 34.7285 179.317 29.1963 179.395 23.392C179.473 17.5813 176.849 11.3559 171.594 8.84246C164.959 5.66824 156.699 9.66517 152.552 15.7286C148.405 21.792 147.297 29.3388 146.053 36.5748C144.809 43.8042 143.144 51.3705 138.226 56.8315C141.628 53.0548 136.127 35.3763 134.255 31.049C130.205 21.6819 123.668 13.4354 115.277 7.57277H115.271Z" fill="#52D5B5"/>
<path d="M216.093 43.7329C209.128 68.6797 202.163 93.6265 195.198 118.573C193.643 124.138 193.066 131.84 198.457 133.965C204.483 136.336 210.366 128.387 216.767 129.34C224.173 130.441 224.937 141.246 230.775 145.917C235.809 149.946 243.882 148.081 248.029 143.144C252.176 138.215 252.986 131.212 252.02 124.85C251.055 118.489 248.534 112.484 246.655 106.33C241.945 90.8604 241.349 74.1666 244.945 58.4056C247.388 47.7169 257.301 25.2836 242.807 18.702C227.348 11.6863 219.1 32.9471 216.087 43.7394L216.093 43.7329Z" fill="#52D5B5"/>
<path d="M260.126 29.3388C256.601 36.1667 256.996 44.2706 257.476 51.9406C257.994 60.1741 258.512 68.4076 259.024 76.6412C259.29 80.8583 259.581 85.1857 261.331 89.0336C263.08 92.8815 266.644 96.2047 270.874 96.4314C277.328 96.7748 283.8 90.1672 289.457 93.2831C292.508 94.9674 293.642 98.8348 296.338 101.044C301.469 105.248 309.989 100.953 311.914 94.6176C313.838 88.2821 311.065 81.4673 307.443 75.9156C303.821 70.364 299.253 65.3112 296.953 59.0988C292.871 48.0732 299.111 27.7712 288.627 19.7449C279.913 13.0726 264.46 20.9434 260.119 29.3518L260.126 29.3388Z" fill="#52D5B5"/>
<path d="M176.357 163.835C181.333 158.484 187.818 151.844 184.954 145.127C182.233 138.739 173.136 138.37 166.579 140.709C148.736 147.07 137.015 165.267 134.216 183.956C131.417 202.638 136.257 221.683 143.306 239.226C144.926 243.255 146.837 247.453 150.44 249.895C154.042 252.331 159.815 252.065 161.921 248.263C163.223 245.905 162.783 243.022 162.938 240.34C163.094 237.652 164.435 234.523 167.111 234.192C172.048 233.59 172.43 241.759 176.402 244.745C179.939 247.401 185.369 244.726 187.287 240.748C189.205 236.771 188.758 232.132 188.667 227.721C188.272 209.272 195.133 190.764 207.469 177.005C210.268 173.882 213.366 170.948 215.368 167.275C217.37 163.595 218.089 158.886 215.938 155.291C213.327 150.944 207.256 149.694 202.422 151.248C197.589 152.803 193.785 156.515 190.481 160.356C183.905 167.981 178.495 176.597 174.478 185.821C172.961 189.306 171.601 192.947 169.106 195.817C159.776 206.564 161.13 192.118 163.197 186.003C165.964 177.808 170.46 170.19 176.35 163.848L176.357 163.835Z" fill="#52D5B5"/>
<path d="M184.332 280.096C185.252 272.639 185.563 263.654 179.486 259.211C174.937 255.887 168.348 256.71 163.566 259.683C158.778 262.657 155.39 267.36 152.124 271.946C148.664 276.805 145.205 281.67 141.745 286.528C137.442 292.572 132.92 299.73 134.877 306.876C136.911 314.293 144.861 318.083 151.554 321.905C164.616 329.367 175.67 340.283 183.276 353.232C185.583 357.164 187.637 361.349 190.909 364.53C194.181 367.71 199.092 369.719 203.387 368.151C207.579 366.622 210.029 362.107 210.612 357.689C211.195 353.277 210.301 348.821 209.828 344.39C207.372 321.516 216.916 297.696 234.494 282.797C239.554 278.508 245.204 274.939 250.219 270.592C255.234 266.246 259.698 260.908 261.408 254.501C263.119 248.101 261.506 240.509 256.225 236.486C250.944 232.463 242.003 233.622 239.049 239.55C237.41 242.834 237.766 246.714 237.137 250.329C235.33 260.713 225.89 267.69 218.063 274.784C210.242 281.877 203.452 290.104 197.938 299.096C195.833 302.529 188.11 325.04 185.654 325.642C177.95 327.527 183.963 283.179 184.345 280.083L184.332 280.096Z" fill="#52D5B5"/>
<path d="M204.178 187.927C198.275 191.172 197.336 199.38 198.904 205.916C200.472 212.452 203.796 218.678 203.796 225.402C203.796 232.709 199.882 239.349 196.759 245.957C193.636 252.564 191.22 260.357 194.194 267.029C197.155 269.692 201.917 269.4 205.377 267.425C208.836 265.449 211.299 262.152 213.657 258.951C220.33 249.895 226.998 240.839 233.671 231.789C239.127 224.385 244.621 216.916 248.424 208.546C252.227 200.177 254.262 190.738 252.448 181.734C251.599 177.523 249.817 173.345 246.571 170.52C243.325 167.696 238.414 166.536 234.572 168.48C229.33 171.136 228.047 178.035 228.442 183.884C228.825 189.54 230.755 197.041 227.49 202.256C225.255 205.819 220.713 208.488 218.141 204.31C216.255 201.252 219.611 195.512 217.382 191.658C214.797 187.195 208.772 185.394 204.178 187.92V187.927Z" fill="#52D5B5"/>
<path d="M293.318 126.593C293.266 117.744 285.867 108.364 277.094 109.705C268.568 111.007 264.402 120.666 262.361 129.022C259.18 142.049 257.352 155.407 256.931 168.804C256.575 180.16 257.268 191.775 261.434 202.347C265.594 212.919 273.66 222.409 284.429 226.114C295.197 229.826 308.596 226.587 314.849 217.091C321.101 207.587 319.125 195.117 321.185 183.943C326.142 157.065 353.62 140.164 364.252 114.978C366.799 108.94 367.686 100.629 362.185 97.0469C356.717 93.484 349.162 97.8307 346.052 103.557C342.942 109.277 342.463 116.066 339.884 122.045C337.305 128.025 331.027 133.518 324.807 131.542C328.908 125.88 333.178 119.772 333.457 112.788C333.742 105.805 328.053 98.1611 321.114 99.1716C316.844 99.7935 313.54 103.454 312.017 107.483C310.501 111.512 310.423 115.911 310.242 120.212C309.711 132.747 308.104 145.23 305.46 157.493C304.43 162.248 303.167 167.139 300.121 170.935C297.07 174.731 291.757 177.141 287.195 175.411C269.06 168.544 293.377 137.638 293.312 126.606L293.318 126.593Z" fill="#52D5B5"/>
<path d="M241.952 307.821C241.278 301.823 235.589 295.986 229.732 297.508C223.518 299.121 221.711 306.895 221.043 313.263C219.43 328.7 217.81 344.137 216.197 359.581C214.473 376.067 212.743 392.56 211.02 409.047C210.372 415.259 210.126 422.553 214.914 426.583C219.339 430.307 226.479 429.193 230.788 425.332C235.097 421.471 237.034 415.609 237.837 409.889C238.634 404.169 238.472 398.338 239.457 392.644C242.567 374.681 258.169 359.581 276.272 357.022C279.621 356.549 283.088 356.452 286.217 355.169C289.347 353.886 292.146 351.01 292.029 347.635C291.899 343.787 288.018 340.963 284.196 340.432C280.367 339.9 276.537 341.028 272.741 341.747C268.944 342.466 264.752 342.705 261.486 340.658C266.365 329.529 271.095 318.342 275.669 307.083C278.799 299.387 281.87 291.613 283.49 283.464C284.682 277.453 283.982 269.498 278.151 267.561C274.419 266.317 270.233 268.468 267.868 271.603C265.497 274.738 264.512 278.664 263.482 282.454C257.962 302.71 249.584 322.183 238.673 340.134C238.686 334.848 237.63 328.635 238.414 323.453C239.243 317.972 242.651 313.69 241.952 307.808V307.821Z" fill="#52D5B5"/>
<path d="M297.504 247.997C293.889 247.511 290.306 246.481 286.664 246.727C283.023 246.974 279.155 248.898 278.073 252.37C277.069 255.589 278.812 259.152 281.429 261.29C284.047 263.428 287.377 264.445 290.617 265.416C303.536 269.284 318.607 272.86 329.641 265.112C337.429 259.645 340.837 250.051 345.262 241.642C355.512 222.156 372.818 207.283 391.089 194.955C409.367 182.621 429.005 172.328 446.68 159.151C464.355 145.975 480.333 129.327 487.739 108.597C489.521 103.603 490.259 96.9108 485.795 94.0216C482.445 91.8515 477.761 93.2702 474.897 96.0492C472.033 98.8218 470.491 102.637 468.729 106.207C459.859 124.138 444.03 137.722 427.197 148.592C410.365 159.462 392.158 168.123 375.533 179.311C359.451 190.129 345.145 202.988 338.07 221.256C331.779 237.503 315.775 250.459 297.504 248.01V247.997Z" fill="#52D5B5"/>
<path d="M293.895 291.814C289.548 298.02 301.689 308.275 309.503 312.615C317.317 316.955 327.004 317.804 335.459 314.889C345.378 311.469 352.914 303.494 360.028 295.798C369.254 285.816 378.487 275.833 387.713 265.857C391.925 261.303 396.331 256.341 397.173 250.206C398.015 244.071 393.324 236.855 387.156 237.6C383.23 238.073 380.353 241.383 377.884 244.46C368.017 256.742 358.369 273.786 345.288 283.017C339.644 287.001 335.303 290.609 325.811 291.128C316.319 291.646 298.243 285.615 293.895 291.821V291.814Z" fill="#52D5B5"/>
<path d="M306.484 317.597C299.959 316.165 291.835 315.278 287.83 320.609C284.014 325.688 287.04 333.5 292.372 336.972C297.705 340.445 304.424 340.762 310.786 340.969C301.113 351.444 294.821 364.97 293.046 379.099C292.184 385.965 292.236 393.344 288.42 399.122C284.604 404.901 274.833 407.278 271.011 401.506C268.335 397.47 270.019 392.158 270.842 387.397C271.671 382.636 270.447 376.313 265.678 375.413C262.886 374.888 260.074 376.695 258.551 379.086C257.028 381.476 256.517 384.352 256.037 387.144C251.793 411.936 247.549 436.721 243.306 461.512C242.638 465.399 242.172 469.966 244.977 472.751C248.852 476.593 255.908 473.6 258.551 468.838C261.195 464.071 261.149 458.338 262.471 453.052C266.559 436.701 282.99 426.686 298.767 420.642C314.544 414.592 331.837 410.277 343.83 398.397C348.475 393.797 352.084 388.252 356.685 383.607C363.572 376.65 372.39 371.967 381.053 367.393C392.203 361.511 403.354 355.623 414.511 349.741C417.453 348.186 420.478 346.566 422.565 343.988C424.651 341.41 425.578 337.581 423.874 334.731C422.208 331.945 418.522 330.902 415.302 331.408C412.088 331.913 409.218 333.656 406.451 335.359C387.623 346.936 368.794 358.518 349.966 370.094C338.316 377.259 326.66 384.424 315.011 391.595C309.147 384.242 312.231 373.055 318.101 365.709C325.377 356.614 347.147 344.37 341.808 330.067C338.044 319.981 315.147 319.527 306.477 317.623L306.484 317.597Z" fill="#52D5B5"/>
<path d="M412.891 231.582C410.319 233.428 408.667 236.259 407.093 238.999C397.924 254.954 388.75 270.91 379.582 286.865C376.252 292.663 372.921 298.454 369.507 304.207C368.263 306.299 367.012 308.385 365.762 310.471C353.516 330.87 322.021 367.529 329.025 371.669C336.029 375.814 348.994 355.966 360.106 349.838C376.751 340.652 394.886 334.167 410.799 323.77C426.711 313.367 440.726 297.793 442.916 278.949C443.311 275.567 443.285 272.011 441.834 268.928C440.382 265.844 437.201 263.382 433.8 263.635C427.495 264.108 425.403 272.043 423.744 278.12C419.902 292.184 409.555 304.336 396.266 310.4C401.993 307.789 407.533 292.067 409.807 286.528C413.215 278.23 415.541 269.672 416.578 260.765C417.414 253.601 419.604 249.519 422.325 242.925C425.163 236.058 422.176 224.903 412.891 231.582Z" fill="#52D5B5"/>
<path d="M427.612 360.481C419.721 367.834 413.52 377.259 404.132 382.584C390.506 390.312 371.865 388.408 360.793 399.479C357.65 402.62 355.35 407.421 357.21 411.45C359.646 416.736 367.019 417.015 372.766 416.004C400.387 411.126 426.193 395.145 454.196 396.654C462.36 397.095 470.42 399.038 478.597 399.038C486.773 399.038 500.704 399.194 500.626 390.312C500.542 381.431 481.059 376.482 469.701 378.833C466.429 379.513 463.092 380.725 459.827 380.019C456.561 379.313 453.697 375.529 455.434 372.673C456.982 370.127 460.662 370.269 463.61 370.723C474.677 372.427 485.737 374.13 496.803 375.84C502.868 376.773 510.844 376.683 513.021 370.962C514.439 367.238 512.204 362.923 508.913 360.662C505.621 358.402 501.533 357.708 497.587 357.074C474.91 353.414 446.765 342.44 427.606 360.481H427.612Z" fill="#52D5B5"/>
<path d="M309.328 429.219C303.173 430.767 295.91 434.298 295.929 440.627C295.942 443.989 298.275 447.04 301.249 448.627C304.223 450.214 307.722 450.532 311.084 450.311C322.235 449.586 332.414 443.445 343.519 442.207C363.702 439.966 381.83 453.959 401.624 458.493C414.485 461.434 427.884 460.32 441.024 459.186C455.311 457.955 469.591 456.725 483.877 455.494C487.499 455.183 491.691 454.522 493.473 451.367C495.306 448.128 493.356 443.801 490.227 441.78C487.097 439.759 483.177 439.48 479.452 439.37C461.336 438.826 443.136 440.944 425.636 445.634C422.779 446.399 419.785 447.241 416.915 446.554C414.045 445.867 411.44 443.037 412.166 440.18C412.956 437.077 416.746 436.008 419.915 435.483C430.845 433.663 441.776 431.849 452.706 430.029C476.737 426.032 502.259 422.184 524.774 431.46C529.601 433.449 534.311 436.047 539.507 436.552C544.704 437.057 550.69 434.699 552.258 429.737C553.554 425.643 551.384 421.076 548.04 418.368C544.697 415.661 540.414 414.443 536.222 413.465C495.643 404.013 453.257 411.204 412.218 418.414C394.873 421.465 374.671 428.247 357.041 426.978C340.487 425.792 325.818 425.086 309.328 429.232V429.219Z" fill="#52D5B5"/>
<path d="M242.36 486.588C231.131 486.53 220.046 492.354 213.741 501.617C211.182 505.374 209.355 509.825 209.679 514.359C210.009 518.887 212.886 523.403 217.253 524.698C223.013 526.402 228.851 522.263 232.751 517.715C236.658 513.161 240.04 507.713 245.554 505.336C255.713 500.956 266.883 509.086 277.95 509.281C287.131 509.443 295.567 504.105 304.702 503.198C317.9 501.889 330.159 509.902 340.046 518.713C349.933 527.523 359.147 537.764 371.477 542.623C375.377 544.165 379.718 545.117 383.774 544.029C387.83 542.947 391.419 539.358 391.381 535.173C391.335 530.114 386.528 526.577 382.225 523.888C371.483 517.184 360.741 510.479 350.005 503.774C335.861 494.945 320.498 485.791 303.847 486.795C301.294 486.951 298.703 487.34 296.202 486.815C293.701 486.29 291.232 484.554 290.785 482.041C290.319 479.398 292.282 476.813 294.705 475.653C297.135 474.494 299.921 474.435 302.609 474.403C315.555 474.228 328.5 474.053 341.446 473.878C345.573 473.82 349.869 473.729 353.555 471.864C357.242 469.998 360.086 465.807 359.004 461.836C357.449 456.142 349.953 455.021 344.031 455.105C331.176 455.28 318.328 455.818 305.506 456.718C296.921 457.321 285.09 456.472 277.049 460.203C268.898 463.993 270.104 471.682 266.929 478.821C262.296 489.244 251.755 486.64 242.353 486.595L242.36 486.588Z" fill="#52D5B5"/>
<path d="M379.517 462.503C375.928 462.27 371.898 462.179 369.241 464.595C364.855 468.586 366.883 476.949 362.095 480.441C359.218 482.539 355.272 481.82 351.709 481.801C347.685 481.781 342.605 483.945 343.797 488.499C344.141 489.821 344.983 490.961 346.065 491.796L369.656 510.129C375.196 514.437 381.163 518.913 388.16 519.529C395.261 520.151 402.078 516.653 409.185 516.108C421.308 515.188 432.245 522.781 441.996 530.017C459.787 543.212 477.586 556.414 495.378 569.61C499.317 572.532 503.438 575.544 508.621 575.576C511.252 575.596 513.837 574.572 515.508 572.545C519.785 567.343 515.424 560.1 511.031 555.281C481.557 522.956 402.013 497.614 400.075 488.454C398.145 479.3 448.365 478.329 448.365 478.329C450.574 477.862 452.667 476.871 454.306 475.323C460.824 469.182 454.306 461.596 447.717 461.058C442.495 460.631 439.002 463.63 434.324 464.867C429.232 466.215 424.094 465.405 418.859 465.062C405.745 464.2 392.624 463.345 379.511 462.49L379.517 462.503Z" fill="#52D5B5"/>
<path d="M455.155 500.678C480.216 511.943 502.375 529.576 518.949 551.446C523.562 557.535 528.071 564.22 534.978 567.511C541.885 570.802 552.012 568.794 554.306 561.513C556.198 555.508 551.934 549.159 546.731 545.603C541.522 542.04 535.289 540.174 530.151 536.521C525.007 532.867 518.677 523.416 523.186 520.41C527.696 517.404 576.276 552.022 602.822 567.829C608.627 571.281 615.786 574.812 621.786 571.703C628.298 568.328 628.952 558.643 625.013 552.469C621.073 546.296 614.141 542.811 607.538 539.617C583.889 528.17 560.234 516.73 536.585 505.284C522.577 498.508 508.355 491.583 496.829 481.14C488.412 473.516 476.62 462.082 466.409 473.166C462.01 477.94 458.589 482.455 453.619 486.834C447.451 492.269 446.81 496.914 455.155 500.671V500.678Z" fill="#52D5B5"/>
<path d="M422.312 549.619C438.387 557.464 434.946 583.674 449.214 594.44C456.263 599.759 466.312 600.096 472.94 605.932C481.83 613.758 480.877 627.575 479.478 639.313C477.307 657.51 475.811 676.031 478.998 694.078C482.186 712.126 490.525 729.856 504.986 741.167C517.187 750.709 532.6 754.959 547.567 758.988C563.143 763.186 578.713 767.383 594.289 771.581C598.131 772.618 602.673 773.512 605.724 770.972C609.197 768.077 608.368 762.175 605.238 758.917C602.109 755.658 597.502 754.363 593.129 753.203C574.994 748.39 556.858 743.57 538.73 738.757C533.475 737.364 527.378 735.168 525.966 729.928C524.385 724.059 529.711 718.889 533.851 714.432C548.798 698.328 552.653 672.928 543.155 653.137C541.146 648.953 538.438 644.865 534.376 642.604C530.307 640.35 524.631 640.466 521.515 643.913C518.307 647.456 518.8 652.872 519.493 657.594C521.022 668.095 522.558 678.596 524.087 689.09C524.644 692.932 525.188 696.955 523.886 700.608C522.584 704.262 518.774 707.345 514.984 706.458C510.098 705.311 508.718 699.157 508.297 694.169C505.861 665.659 503.256 636.444 491.004 610.571C478.201 583.538 455.097 555.391 432.115 536.255C425.895 531.079 413.863 521.071 405.479 527.309C389.139 539.468 415.736 546.4 422.325 549.613L422.312 549.619Z" fill="#52D5B5"/>
<path d="M488.05 582.437C486.475 587.826 492.248 592.477 497.555 594.35C502.861 596.222 509.191 597.647 511.679 602.68C514.673 608.737 510.066 616.077 511.601 622.652C512.709 627.374 516.869 630.873 521.372 632.712C525.875 634.552 530.786 635.064 535.561 635.984C551.474 639.054 566.415 646.99 577.844 658.449C583.715 664.331 588.904 671.276 596.407 674.865C603.91 678.453 614.808 676.918 617.925 669.229C620.004 664.098 617.814 658.041 614.011 654.018C610.201 649.996 605.038 647.579 600.003 645.26C590.323 640.79 580.643 636.327 570.97 631.857C566.318 629.706 561.523 627.459 558.135 623.624C554.746 619.789 553.133 613.907 555.692 609.476C559.003 603.749 567.51 603.27 573.413 606.282C579.315 609.288 583.527 614.71 588.418 619.167C593.31 623.624 599.88 627.355 606.307 625.755C608.459 625.217 610.532 624.019 611.633 622.101C613.7 618.506 611.569 613.712 608.18 611.315C604.791 608.919 600.522 608.245 596.459 607.364C592.105 606.425 587.557 605.012 584.661 601.631C581.764 598.256 581.46 592.354 585.121 589.815C590.116 586.343 596.569 591.506 600.055 596.487C603.541 601.469 608.439 607.487 614.29 605.803C618.074 604.708 620.257 600.426 620.004 596.507C619.752 592.588 617.568 589.044 615.041 586.032C607.37 576.891 595.785 571.119 583.844 570.498C569.214 569.733 558.802 579.042 545.157 581.549C526.679 584.95 489.352 574.941 488.05 582.437Z" fill="#52D5B5"/>
<path d="M548.87 703.543C544.95 709.658 540.978 717.593 544.892 723.715C547.529 727.842 552.88 729.345 557.785 729.468C562.69 729.597 567.633 728.69 572.48 729.455C581.292 730.841 588.211 737.371 595.526 742.456C602.841 747.541 615.294 751.37 620.432 746.932C624.456 741.892 607.876 722.536 595.714 716.816C592.948 715.514 589.98 714.445 587.732 712.372C585.484 710.299 584.162 706.821 585.62 704.139C587.259 701.133 591.561 700.615 594.762 701.858C597.962 703.102 600.476 705.596 603.314 707.52C606.152 709.451 609.806 710.843 612.981 709.535C616.869 707.928 618.229 702.765 616.888 698.781C615.547 694.797 612.249 691.824 608.919 689.252C601.597 683.597 586.209 671.49 576.406 671.775C563.623 672.15 554.61 694.577 548.863 703.549L548.87 703.543Z" fill="#52D5B5"/>
<path d="M646.485 619.866C641.91 610.648 629.989 603.056 621.605 609.042C614.219 614.315 615.683 626.15 621.164 633.373C626.646 640.596 634.894 645.241 640.88 652.049C646.874 658.857 650.074 669.922 644.003 676.659C640.174 680.909 634.045 681.952 628.777 684.193C623.51 686.441 618.3 691.707 620.108 697.123C621.566 701.489 626.846 703.316 631.466 703.322C636.086 703.329 640.751 702.137 645.267 703.076C657.804 705.68 661.296 721.351 664.588 733.691C671.423 759.325 700.689 803.194 711.263 795.835C722.123 787.504 706.229 757.129 702.199 738.019C698.221 719.174 694.146 700.032 685.01 683.066C678.388 670.764 667.989 663.502 659.923 652.801C652.692 643.207 651.778 630.529 646.485 619.866Z" fill="#52D5B5"/>
<path d="M661.128 766.515C659.521 753.093 657.823 739.347 651.694 727.284C649.873 723.702 647.333 720.049 643.446 718.986C638.159 717.548 632.678 721.837 630.825 726.98C628.971 732.124 629.788 737.798 630.63 743.194C633.494 761.637 636.358 780.074 639.222 798.517C641.269 811.686 643.537 825.42 651.448 836.167C659.359 846.907 674.786 853.418 686.507 847.011C696.083 841.777 700.113 829.643 698.947 818.819C697.787 807.994 692.467 798.115 687.245 788.547C685.515 785.379 683.669 782.082 680.636 780.132C677.598 778.176 673.004 778.124 670.82 781C668.456 784.122 674.831 807.132 666.829 799.339C660.784 793.457 662.041 774.159 661.128 766.509V766.515Z" fill="#52D5B5"/>
<path d="M728.038 854.655C724.015 846.37 718.345 838.875 711.452 832.746C708.251 829.903 704.681 827.208 702.847 823.34C701.014 819.473 701.739 813.967 705.614 812.127C709.851 810.112 714.581 813.455 718.073 816.584C725.356 823.107 732.638 829.637 739.921 836.16C745.791 841.42 751.661 846.681 757.531 851.941C763.479 857.272 769.602 862.837 772.79 870.15C775.977 877.464 775.388 887.058 769.246 892.169C761.445 898.66 749.581 895.013 740.737 890.025C730.099 884.02 720.341 876.447 711.892 867.637C709.663 865.311 707.467 862.804 706.508 859.734C705.549 856.663 706.164 852.886 708.756 850.975C712.436 848.261 716.097 850.703 719.538 852.323C719.285 852.206 729.114 856.883 728.038 854.668V854.655Z" fill="#52D5B5"/>
<path d="M670.801 535.97C674.948 534.137 679.976 535.465 684.109 537.505C701.512 546.076 711.186 565.16 715.935 583.92C720.684 602.68 721.753 622.341 728.057 640.648C730.72 648.376 735.21 656.597 743.122 658.747C752.873 661.397 762.19 653.539 768.539 645.694C784.906 625.457 795.758 600.834 799.646 575.129C800.708 568.088 803.138 559.051 810.265 558.578C813.945 558.332 817.373 560.891 819.155 564.11C820.943 567.33 821.377 571.1 821.584 574.773C823.761 613.272 802.16 652.133 768.261 670.699C758.795 675.882 748.169 679.853 741.268 688.138C735.392 695.193 733.014 704.625 732.904 713.797C732.794 722.97 734.763 732.02 736.727 740.986C739.253 752.542 746.368 762.57 748.901 774.127C751.92 786.422 753.307 796.282 747.372 804.425C744.715 808.072 739.13 808.545 735.094 806.517C731.057 804.489 728.317 800.59 726.185 796.619C714.983 775.785 716.35 750.793 712.391 727.485C701.985 666.178 655.024 617.716 632.84 559.602C630.151 552.554 628.674 542.843 635.185 539.008C639.008 536.76 644.107 537.913 647.625 540.615C651.143 543.316 653.443 547.261 655.646 551.103C671.572 578.861 687.491 606.613 703.417 634.371C704.428 609.858 695.001 585.093 677.928 567.421C673.581 562.925 668.65 558.695 666.143 552.975C663.635 547.255 664.555 539.384 670.03 536.352C670.283 536.216 670.535 536.087 670.788 535.976L670.801 535.97Z" fill="#52D5B5"/>
<path d="M731.822 536.417C728.239 533.916 724.209 531.798 719.855 531.474C715.501 531.15 710.765 532.945 708.601 536.734C706.281 540.79 707.408 546.05 709.929 549.982C712.456 553.914 716.168 556.9 719.479 560.198C732.088 572.778 739.001 590.839 737.997 608.595C737.608 615.481 736.098 622.432 737.355 629.214C738.612 635.997 743.769 642.799 750.689 642.928C759.261 643.09 764.483 633.84 767.755 625.943C775.634 606.943 783.506 587.943 791.385 568.943C793.614 563.573 795.868 558.04 795.946 552.236C796.024 546.425 793.4 540.2 788.145 537.687C781.511 534.512 773.25 538.509 769.103 544.573C764.956 550.636 763.848 558.183 762.604 565.419C761.36 572.648 759.695 580.215 754.778 585.676C758.179 581.899 752.678 564.22 750.806 559.893C746.756 550.526 740.219 542.28 731.828 536.417H731.822Z" fill="#52D5B5"/>
<path d="M832.638 572.571C825.673 597.517 818.708 622.464 811.742 647.411C810.187 652.976 809.611 660.678 815.001 662.803C821.027 665.174 826.91 657.225 833.312 658.177C840.717 659.279 841.482 670.084 847.32 674.755C852.354 678.784 860.427 676.918 864.574 671.982C868.72 667.052 869.53 660.05 868.565 653.688C867.599 647.327 865.079 641.322 863.2 635.168C858.49 619.698 857.894 603.004 861.489 587.243C863.932 576.555 873.845 554.121 859.351 547.54C843.892 540.524 835.644 561.785 832.631 572.577L832.638 572.571Z" fill="#52D5B5"/>
<path d="M876.677 558.183C873.152 565.011 873.547 573.115 874.027 580.785C874.545 589.018 875.063 597.252 875.575 605.485C875.841 609.702 876.132 614.03 877.882 617.878C879.631 621.726 883.195 625.049 887.426 625.276C893.879 625.619 900.351 619.011 906.008 622.127C909.059 623.812 910.193 627.679 912.889 629.888C918.02 634.092 926.54 629.797 928.465 623.462C930.389 617.126 927.616 610.311 923.994 604.76C920.372 599.208 915.804 594.155 913.504 587.943C909.422 576.917 915.662 556.615 905.179 548.589C896.464 541.917 881.011 549.787 876.67 558.196L876.677 558.183Z" fill="#52D5B5"/>
<path d="M792.908 692.679C797.884 687.328 804.369 680.688 801.505 673.971C798.784 667.583 789.687 667.214 783.13 669.553C765.287 675.914 753.566 694.111 750.767 712.8C747.968 731.482 752.808 750.528 759.857 768.07C761.477 772.099 763.388 776.297 766.991 778.739C770.593 781.181 776.366 780.909 778.472 777.107C779.774 774.749 779.334 771.866 779.489 769.184C779.645 766.496 780.986 763.367 783.662 763.037C788.599 762.434 788.981 770.603 792.953 773.589C796.491 776.245 801.92 773.57 803.838 769.592C805.756 765.615 805.309 760.977 805.218 756.565C804.823 738.116 811.684 719.608 824.021 705.849C826.82 702.726 829.917 699.792 831.919 696.119C833.921 692.439 834.64 687.73 832.489 684.135C829.878 679.788 823.807 678.538 818.973 680.092C814.14 681.647 810.336 685.359 807.032 689.2C800.456 696.825 795.046 705.441 791.029 714.665C789.512 718.151 788.152 721.791 785.657 724.661C776.327 735.408 777.681 720.962 779.748 714.847C782.515 706.652 787.012 699.034 792.901 692.692L792.908 692.679Z" fill="#52D5B5"/>
<path d="M800.883 808.94C801.803 801.484 802.114 792.499 796.037 788.055C791.489 784.731 784.899 785.554 780.118 788.528C775.33 791.501 771.941 796.204 768.675 800.79C765.216 805.649 761.756 810.514 758.296 815.372C753.994 821.416 749.471 828.575 751.428 835.72C753.462 843.137 761.412 846.927 768.105 850.749C781.167 858.211 792.221 869.127 799.827 882.076C802.134 886.008 804.188 890.193 807.46 893.374C810.732 896.555 815.643 898.563 819.939 896.995C824.131 895.466 826.58 890.951 827.163 886.533C827.746 882.115 826.852 877.665 826.379 873.234C823.923 850.36 833.467 826.54 851.045 811.641C856.105 807.353 861.755 803.783 866.77 799.436C871.785 795.09 876.249 789.752 877.96 783.345C879.67 776.945 878.057 769.353 872.776 765.33C867.496 761.307 858.554 762.467 855.6 768.394C853.961 771.678 854.317 775.559 853.689 779.173C851.881 789.558 842.441 796.534 834.614 803.628C826.794 810.721 820.003 818.948 814.49 827.94C812.384 831.373 804.661 853.884 802.205 854.487C794.501 856.372 800.514 812.023 800.896 808.927L800.883 808.94Z" fill="#52D5B5"/>
<path d="M820.729 716.771C814.826 720.016 813.887 728.224 815.455 734.76C817.023 741.296 820.347 747.522 820.347 754.246C820.347 761.553 816.433 768.193 813.31 774.801C810.187 781.408 807.771 789.201 810.745 795.874C813.706 798.536 818.468 798.244 821.928 796.269C825.387 794.293 827.85 790.996 830.208 787.795C836.881 778.739 843.549 769.683 850.222 760.633C855.678 753.229 861.172 745.76 864.975 737.39C868.778 729.021 870.813 719.582 868.999 710.578C868.15 706.367 866.368 702.189 863.122 699.364C859.876 696.54 854.965 695.38 851.123 697.324C845.881 699.98 844.598 706.879 844.993 712.728C845.376 718.384 847.306 725.885 844.041 731.1C841.806 734.663 837.264 737.332 834.692 733.154C832.806 730.096 836.162 724.356 833.933 720.502C831.348 716.039 825.323 714.238 820.729 716.764V716.771Z" fill="#52D5B5"/>
<path d="M909.863 655.437C909.811 646.588 902.412 637.208 893.639 638.549C885.113 639.851 880.946 649.51 878.905 657.866C875.724 670.894 873.897 684.251 873.476 697.648C873.12 709.004 873.813 720.619 877.979 731.191C882.139 741.763 890.205 751.253 900.974 754.959C911.742 758.664 925.141 755.431 931.393 745.935C937.646 736.431 935.67 723.961 937.73 712.787C942.686 685.91 970.165 669.009 980.797 643.822C983.343 637.785 984.231 629.473 978.73 625.891C973.262 622.328 965.707 626.675 962.597 632.401C959.487 638.121 959.007 644.91 956.429 650.89C953.85 656.869 947.572 662.362 941.352 660.386C945.453 654.725 949.723 648.616 950.001 641.632C950.286 634.649 944.598 627.005 937.659 628.016C933.389 628.638 930.084 632.298 928.562 636.327C927.046 640.356 926.968 644.755 926.787 649.056C926.255 661.591 924.648 674.074 922.005 686.337C920.975 691.092 919.711 695.983 916.666 699.779C913.614 703.575 908.301 705.985 903.74 704.255C885.605 697.389 909.921 666.482 909.856 655.45L909.863 655.437Z" fill="#52D5B5"/>
<path d="M858.503 836.666C857.829 830.667 852.14 824.83 846.283 826.353C840.069 827.966 838.262 835.739 837.594 842.107C835.981 857.544 834.361 872.981 832.748 888.425C831.024 904.911 829.295 921.404 827.571 937.891C826.923 944.103 826.677 951.397 831.465 955.427C835.89 959.151 843.03 958.037 847.339 954.176C851.648 950.315 853.585 944.453 854.388 938.733C855.185 933.013 855.023 927.183 856.008 921.488C859.118 903.525 874.72 888.425 892.823 885.866C896.172 885.393 899.639 885.296 902.768 884.013C905.898 882.731 908.697 879.854 908.58 876.479C908.451 872.631 904.569 869.807 900.747 869.276C896.924 868.745 893.088 869.872 889.292 870.591C885.495 871.31 881.303 871.55 878.037 869.502C882.916 858.373 887.646 847.186 892.22 835.927C895.35 828.231 898.421 820.458 900.041 812.308C901.233 806.297 900.533 798.342 894.702 796.405C890.97 795.161 886.784 797.312 884.419 800.447C882.048 803.582 881.063 807.508 880.033 811.298C874.513 831.554 866.135 851.027 855.224 868.978C855.237 863.692 854.181 857.479 854.965 852.297C855.794 846.817 859.202 842.535 858.503 836.653V836.666Z" fill="#52D5B5"/>
<path d="M914.055 776.841C910.44 776.355 906.857 775.325 903.215 775.572C899.574 775.811 895.706 777.742 894.624 781.214C893.62 784.433 895.363 787.996 897.98 790.134C900.598 792.272 903.928 793.289 907.168 794.261C920.087 798.128 935.158 801.704 946.192 793.956C953.98 788.489 957.388 778.895 961.813 770.486C972.063 751.001 989.369 736.127 1007.64 723.799C1025.92 711.465 1045.56 701.172 1063.23 687.996C1080.91 674.819 1096.88 658.171 1104.29 637.441C1106.07 632.447 1106.81 625.755 1102.35 622.866C1099 620.696 1094.31 622.114 1091.45 624.893C1088.58 627.672 1087.04 631.481 1085.28 635.051C1076.41 652.982 1060.58 666.566 1043.75 677.436C1026.92 688.306 1008.71 696.968 992.084 708.155C976.002 718.973 961.696 731.832 954.621 750.1C948.33 766.347 932.326 779.303 914.055 776.854V776.841Z" fill="#52D5B5"/>
<path d="M910.446 820.658C906.099 826.864 918.241 837.119 926.054 841.459C933.868 845.8 943.555 846.648 952.01 843.733C961.93 840.313 969.465 832.338 976.579 824.642C985.805 814.66 995.038 804.677 1004.26 794.701C1008.48 790.147 1012.88 785.185 1013.72 779.05C1014.57 772.916 1009.88 765.699 1003.71 766.444C999.781 766.917 996.904 770.227 994.436 773.304C984.568 785.587 974.92 802.63 961.839 811.861C956.195 815.845 951.854 819.454 942.362 819.972C932.87 820.49 914.794 814.459 910.446 820.665V820.658Z" fill="#52D5B5"/>
<path d="M923.035 846.441C916.51 845.009 908.386 844.122 904.381 849.453C900.565 854.532 903.591 862.344 908.923 865.817C914.256 869.289 920.975 869.606 927.337 869.813C917.664 880.288 911.372 893.814 909.597 907.943C908.735 914.81 908.787 922.188 904.971 927.966C901.155 933.745 891.384 936.122 887.562 930.35C884.886 926.315 886.57 921.003 887.393 916.241C888.222 911.48 886.998 905.157 882.229 904.257C879.437 903.732 876.625 905.54 875.102 907.93C873.58 910.32 873.068 913.197 872.588 915.989C868.344 940.78 864.1 965.565 859.857 990.356C859.189 994.243 858.723 998.81 861.528 1001.6C865.403 1005.44 872.459 1002.44 875.102 997.683C877.746 992.915 877.7 987.182 879.022 981.896C883.11 965.545 899.542 955.53 915.318 949.486C931.095 943.436 948.388 939.122 960.381 927.241C965.026 922.642 968.635 917.096 973.236 912.452C980.123 905.494 988.941 900.811 997.604 896.237C1008.75 890.355 1019.91 884.467 1031.06 878.585C1034 877.03 1037.03 875.41 1039.12 872.832C1041.2 870.254 1042.13 866.425 1040.42 863.575C1038.76 860.79 1035.07 859.747 1031.85 860.252C1028.64 860.757 1025.77 862.5 1023 864.204C1004.17 875.78 985.345 887.362 966.517 898.939C954.867 906.103 943.211 913.268 931.562 920.439C925.698 913.086 928.782 901.899 934.652 894.553C941.928 885.458 963.698 873.214 958.359 858.911C954.595 848.825 931.698 848.371 923.029 846.467L923.035 846.441Z" fill="#52D5B5"/>
<path d="M1029.44 760.426C1026.87 762.272 1025.22 765.103 1023.64 767.843C1014.48 783.799 1005.3 799.754 996.133 815.709C992.803 821.507 989.472 827.298 986.058 833.051C984.814 835.143 983.563 837.229 982.313 839.315C970.067 859.714 938.572 896.373 945.576 900.513C952.58 904.659 965.545 884.81 976.657 878.682C993.302 869.496 1011.44 863.012 1027.35 852.614C1043.26 842.211 1057.28 826.638 1059.47 807.793C1059.86 804.412 1059.84 800.855 1058.38 797.772C1056.93 794.688 1053.75 792.226 1050.35 792.479C1044.05 792.952 1041.95 800.888 1040.29 806.964C1036.45 821.028 1026.11 833.18 1012.82 839.244C1018.54 836.633 1024.08 820.911 1026.36 815.372C1029.77 807.074 1032.09 798.517 1033.13 789.609C1033.96 782.445 1036.15 778.364 1038.88 771.769C1041.71 764.902 1038.73 753.747 1029.44 760.426Z" fill="#52D5B5"/>
<path d="M1044.16 889.325C1036.27 896.678 1030.06 906.103 1020.68 911.428C1007.05 919.156 988.41 917.252 977.337 928.323C974.195 931.465 971.894 936.265 973.754 940.294C976.19 945.58 983.563 945.859 989.31 944.848C1016.93 939.97 1042.74 923.989 1070.74 925.498C1078.9 925.939 1086.96 927.882 1095.14 927.882C1103.32 927.882 1117.25 928.038 1117.17 919.156C1117.09 910.275 1097.6 905.326 1086.25 907.677C1082.97 908.358 1079.64 909.569 1076.37 908.863C1073.11 908.157 1070.24 904.374 1071.98 901.517C1073.53 898.971 1077.21 899.113 1080.15 899.567C1091.22 901.271 1102.28 902.974 1113.35 904.685C1119.41 905.617 1127.39 905.527 1129.56 899.807C1130.98 896.082 1128.75 891.767 1125.46 889.507C1122.17 887.246 1118.08 886.553 1114.13 885.918C1091.45 882.258 1063.31 871.284 1044.15 889.325H1044.16Z" fill="#52D5B5"/>
<path d="M925.879 958.057C919.724 959.605 912.461 963.136 912.481 969.465C912.493 972.827 914.826 975.878 917.8 977.465C920.774 979.052 924.273 979.369 927.635 979.149C938.786 978.424 948.965 972.282 960.07 971.045C980.253 968.804 998.381 982.796 1018.18 987.331C1031.04 990.272 1044.44 989.158 1057.58 988.024C1071.86 986.793 1086.14 985.562 1100.43 984.332C1104.05 984.021 1108.24 983.36 1110.02 980.205C1111.86 976.966 1109.91 972.639 1106.78 970.618C1103.65 968.596 1099.73 968.318 1096 968.208C1077.89 967.664 1059.69 969.782 1042.19 974.472C1039.33 975.236 1036.34 976.079 1033.47 975.392C1030.6 974.705 1027.99 971.874 1028.72 969.018C1029.51 965.915 1033.3 964.846 1036.47 964.321C1047.4 962.501 1058.33 960.687 1069.26 958.867C1093.29 954.87 1118.81 951.022 1141.32 960.298C1146.15 962.287 1150.86 964.885 1156.06 965.39C1161.25 965.895 1167.24 963.537 1168.81 958.575C1170.11 954.481 1167.93 949.914 1164.59 947.206C1161.25 944.498 1156.97 943.28 1152.77 942.302C1112.19 932.851 1069.81 940.042 1028.77 947.252C1011.42 950.303 991.222 957.085 973.592 955.815C957.038 954.63 942.369 953.924 925.879 958.07V958.057Z" fill="#52D5B5"/>
<path d="M858.904 1015.43C847.676 1015.37 836.59 1021.19 830.286 1030.45C827.726 1034.21 825.899 1038.66 826.223 1043.2C826.554 1047.73 829.43 1052.24 833.797 1053.54C839.557 1055.24 845.395 1051.1 849.296 1046.55C853.203 1042 856.585 1036.55 862.098 1034.17C872.258 1029.79 883.428 1037.92 894.494 1038.12C903.675 1038.28 912.111 1032.94 921.247 1032.04C934.445 1030.73 946.703 1038.74 956.591 1047.55C966.478 1056.36 975.691 1066.6 988.021 1071.46C991.922 1073 996.263 1073.95 1000.32 1072.87C1004.37 1071.78 1007.96 1068.2 1007.93 1064.01C1007.88 1058.95 1003.07 1055.41 998.77 1052.73C988.028 1046.02 977.285 1039.32 966.549 1032.61C952.405 1023.78 937.043 1014.63 920.392 1015.63C917.839 1015.79 915.247 1016.18 912.746 1015.65C910.245 1015.12 907.777 1013.39 907.329 1010.88C906.863 1008.24 908.826 1005.65 911.249 1004.49C913.679 1003.33 916.465 1003.27 919.154 1003.24C932.099 1003.07 945.045 1002.89 957.99 1002.72C962.117 1002.66 966.413 1002.57 970.1 1000.7C973.786 998.836 976.631 994.644 975.549 990.673C973.994 984.979 966.497 983.859 960.575 983.943C947.721 984.118 934.872 984.655 922.05 985.556C913.465 986.158 901.634 985.31 893.594 989.041C885.443 992.831 886.648 1000.52 883.473 1007.66C878.841 1018.08 868.299 1015.48 858.898 1015.43L858.904 1015.43Z" fill="#52D5B5"/>
<path d="M996.068 991.347C992.479 991.114 988.449 991.023 985.792 993.439C981.406 997.43 983.434 1005.79 978.646 1009.28C975.769 1011.38 971.823 1010.66 968.26 1010.65C964.236 1010.63 959.156 1012.79 960.348 1017.34C960.692 1018.66 961.534 1019.8 962.616 1020.64L986.207 1038.97C991.747 1043.28 997.714 1047.76 1004.71 1048.37C1011.81 1048.99 1018.63 1045.5 1025.74 1044.95C1037.86 1044.03 1048.8 1051.62 1058.55 1058.86C1076.34 1072.06 1094.14 1085.26 1111.93 1098.45C1115.87 1101.38 1119.99 1104.39 1125.17 1104.42C1127.8 1104.44 1130.39 1103.42 1132.06 1101.39C1136.34 1096.19 1131.98 1088.94 1127.58 1084.12C1098.11 1051.8 1018.56 1026.46 1016.63 1017.3C1014.7 1008.14 1064.92 1007.17 1064.92 1007.17C1067.13 1006.71 1069.22 1005.72 1070.86 1004.17C1077.38 998.026 1070.86 990.44 1064.27 989.902C1059.05 989.475 1055.55 992.474 1050.88 993.712C1045.78 995.059 1040.64 994.249 1035.41 993.906C1022.3 993.044 1009.18 992.189 996.062 991.334L996.068 991.347Z" fill="#52D5B5"/>
<path d="M1071.71 1029.52C1096.77 1040.79 1118.93 1058.42 1135.5 1080.29C1140.11 1086.38 1144.62 1093.06 1151.53 1096.36C1158.44 1099.65 1168.56 1097.64 1170.86 1090.36C1172.75 1084.35 1168.49 1078 1163.28 1074.45C1158.07 1070.88 1151.84 1069.02 1146.7 1065.36C1141.56 1061.71 1135.23 1052.26 1139.74 1049.25C1144.25 1046.25 1192.83 1080.87 1219.37 1096.67C1225.18 1100.13 1232.34 1103.66 1238.34 1100.55C1244.85 1097.17 1245.5 1087.49 1241.56 1081.31C1237.62 1075.14 1230.69 1071.65 1224.09 1068.46C1200.44 1057.01 1176.79 1045.57 1153.14 1034.13C1139.13 1027.35 1124.91 1020.43 1113.38 1009.98C1104.96 1002.36 1093.17 990.926 1082.96 1002.01C1078.56 1006.78 1075.14 1011.3 1070.17 1015.68C1064 1021.11 1063.36 1025.76 1071.71 1029.52V1029.52Z" fill="#52D5B5"/>
<path d="M1038.86 1078.46C1054.94 1086.31 1051.5 1112.52 1065.76 1123.28C1072.81 1128.6 1082.86 1128.94 1089.49 1134.78C1098.38 1142.6 1097.43 1156.42 1096.03 1168.16C1093.86 1186.35 1092.36 1204.87 1095.55 1222.92C1098.74 1240.97 1107.08 1258.7 1121.54 1270.01C1133.74 1279.55 1149.15 1283.8 1164.12 1287.83C1179.69 1292.03 1195.26 1296.23 1210.84 1300.43C1214.68 1301.46 1219.22 1302.36 1222.28 1299.82C1225.75 1296.92 1224.92 1291.02 1221.79 1287.76C1218.66 1284.5 1214.05 1283.21 1209.68 1282.05C1191.54 1277.23 1173.41 1272.41 1155.28 1267.6C1150.03 1266.21 1143.93 1264.01 1142.52 1258.77C1140.94 1252.9 1146.26 1247.73 1150.4 1243.28C1165.35 1227.17 1169.2 1201.77 1159.71 1181.98C1157.7 1177.8 1154.99 1173.71 1150.93 1171.45C1146.86 1169.19 1141.18 1169.31 1138.07 1172.76C1134.86 1176.3 1135.35 1181.72 1136.04 1186.44C1137.57 1196.94 1139.11 1207.44 1140.64 1217.93C1141.2 1221.78 1141.74 1225.8 1140.44 1229.45C1139.13 1233.11 1135.32 1236.19 1131.53 1235.3C1126.65 1234.16 1125.27 1228 1124.85 1223.01C1122.41 1194.5 1119.81 1165.29 1107.56 1139.41C1094.75 1112.38 1071.65 1084.24 1048.67 1065.1C1042.45 1059.92 1030.41 1049.91 1022.03 1056.15C1005.69 1068.31 1032.29 1075.24 1038.88 1078.46L1038.86 1078.46Z" fill="#52D5B5"/>
<path d="M1104.6 1111.27C1103.03 1116.66 1108.8 1121.32 1114.11 1123.19C1119.41 1125.06 1125.74 1126.48 1128.23 1131.52C1131.22 1137.57 1126.62 1144.91 1128.15 1151.49C1129.26 1156.21 1133.42 1159.71 1137.92 1161.55C1142.43 1163.39 1147.34 1163.9 1152.11 1164.82C1168.03 1167.89 1182.97 1175.83 1194.4 1187.29C1200.27 1193.17 1205.46 1200.11 1212.96 1203.7C1220.46 1207.29 1231.36 1205.76 1234.48 1198.07C1236.56 1192.94 1234.37 1186.88 1230.56 1182.86C1226.75 1178.83 1221.59 1176.42 1216.55 1174.1C1206.87 1169.63 1197.19 1165.16 1187.52 1160.69C1182.87 1158.54 1178.07 1156.3 1174.69 1152.46C1171.3 1148.63 1169.68 1142.74 1172.24 1138.31C1175.55 1132.59 1184.06 1132.11 1189.96 1135.12C1195.87 1138.13 1200.08 1143.55 1204.97 1148C1209.86 1152.46 1216.43 1156.19 1222.86 1154.59C1225.01 1154.05 1227.08 1152.86 1228.18 1150.94C1230.25 1147.34 1228.12 1142.55 1224.73 1140.15C1221.34 1137.76 1217.07 1137.08 1213.01 1136.2C1208.66 1135.26 1204.11 1133.85 1201.21 1130.47C1198.32 1127.09 1198.01 1121.19 1201.67 1118.65C1206.67 1115.18 1213.12 1120.34 1216.61 1125.33C1220.09 1130.31 1224.99 1136.32 1230.84 1134.64C1234.62 1133.55 1236.81 1129.26 1236.56 1125.34C1236.3 1121.43 1234.12 1117.88 1231.59 1114.87C1223.92 1105.73 1212.34 1099.96 1200.4 1099.34C1185.77 1098.57 1175.35 1107.88 1161.71 1110.39C1143.23 1113.79 1105.9 1103.78 1104.6 1111.27Z" fill="#52D5B5"/>
<path d="M1165.41 1232.39C1161.49 1238.5 1157.52 1246.44 1161.44 1252.56C1164.07 1256.69 1169.42 1258.19 1174.33 1258.31C1179.23 1258.43 1184.18 1257.53 1189.02 1258.3C1197.84 1259.69 1204.76 1266.21 1212.07 1271.3C1219.39 1276.39 1231.84 1280.21 1236.98 1275.78C1241 1270.74 1224.42 1251.38 1212.26 1245.66C1209.49 1244.36 1206.52 1243.29 1204.28 1241.22C1202.03 1239.14 1200.71 1235.66 1202.16 1232.98C1203.8 1229.98 1208.11 1229.46 1211.31 1230.7C1214.51 1231.95 1217.02 1234.44 1219.86 1236.36C1222.7 1238.29 1226.35 1239.69 1229.53 1238.38C1233.41 1236.77 1234.77 1231.61 1233.43 1227.63C1232.09 1223.65 1228.79 1220.67 1225.46 1218.1C1218.14 1212.44 1202.75 1200.33 1192.95 1200.62C1180.17 1200.99 1171.15 1223.42 1165.41 1232.39L1165.41 1232.39Z" fill="#52D5B5"/>
</g>
<defs>
<clipPath id="clip0_199_487">
<rect width="1244" height="1318" fill="white"/>
</clipPath>
</defs>
</svg>
