<svg width="965" height="1198" viewBox="0 0 965 1198" fill="none" xmlns="http://www.w3.org/2000/svg">
<path d="M55.9801 145.97C49.1601 132.17 31.3601 120.81 18.8401 129.77C7.82005 137.66 10.0001 155.38 18.1801 166.19C26.3601 177 38.6701 183.96 47.6101 194.15C56.5501 204.34 61.3301 220.9 52.2801 230.99C46.5701 237.35 37.4101 238.91 29.5501 242.27C21.6901 245.63 13.9101 253.52 16.6101 261.63C18.7901 268.17 26.6701 270.91 33.5601 270.91C40.4501 270.91 47.4201 269.14 54.1601 270.54C72.8801 274.43 78.0901 297.9 83.0001 316.37C93.2001 354.74 136.89 420.42 152.67 409.4C168.88 396.92 145.15 351.45 139.14 322.85C133.21 294.64 127.11 265.98 113.48 240.58C103.6 222.16 88.0701 211.29 76.0301 195.27C65.2301 180.91 63.8701 161.93 55.9801 145.96V145.97Z" fill="#D60B52"/>
<path d="M77.84 365.52C75.44 345.42 72.91 324.85 63.76 306.79C61.04 301.43 57.25 295.95 51.45 294.37C43.56 292.21 35.38 298.64 32.62 306.34C29.86 314.04 31.08 322.53 32.33 330.62C36.6 358.23 40.88 385.83 45.15 413.44C48.2 433.16 51.59 453.72 63.4 469.8C75.21 485.88 98.23 495.63 115.73 486.04C130.02 478.2 136.03 460.04 134.3 443.83C132.57 427.62 124.62 412.83 116.83 398.51C114.25 393.77 111.49 388.83 106.96 385.91C102.43 382.99 95.57 382.91 92.31 387.21C88.78 391.89 98.3 426.34 86.35 414.67C77.33 405.86 79.2 376.97 77.84 365.52Z" fill="#D60B52"/>
<path d="M177.71 497.47C171.7 485.06 163.24 473.85 152.95 464.67C148.17 460.41 142.84 456.37 140.11 450.58C137.38 444.79 138.46 436.55 144.24 433.79C150.57 430.77 157.63 435.78 162.84 440.46C173.71 450.23 184.58 460 195.45 469.77C204.21 477.65 212.98 485.52 221.74 493.4C230.62 501.38 239.76 509.71 244.52 520.66C249.28 531.61 248.39 545.97 239.23 553.62C227.58 563.34 209.88 557.88 196.68 550.41C180.8 541.42 166.24 530.08 153.62 516.89C150.29 513.41 147.01 509.65 145.59 505.05C144.17 500.45 145.08 494.8 148.95 491.93C154.44 487.87 159.91 491.52 165.04 493.95C164.66 493.77 179.33 500.77 177.73 497.46L177.71 497.47Z" fill="#D60B52"/>
<path d="M75.5799 496.9C68.3099 491.37 60.6599 485.68 51.6699 484.07C42.6799 482.46 31.9899 486.37 29.0199 495.01C26.6799 501.82 29.8099 509.55 34.8999 514.63C39.9899 519.71 46.7599 522.71 53.3499 525.59C66.6499 531.4 79.9499 537.22 93.2499 543.03C97.5299 544.9 101.92 546.84 105.2 550.16C108.48 553.48 110.44 558.54 108.81 562.92C106.82 568.25 100.17 570.61 94.5699 569.56C88.9699 568.52 84.2299 564.93 79.7999 561.36C72.2599 555.29 64.3999 548.7 54.8299 547.24C45.2599 545.78 33.7999 552.13 33.8399 561.81C33.8799 572.42 46.0799 578.08 56.2399 581.15C72.6999 586.13 89.16 591.12 105.62 596.1C110.42 597.55 115.47 599.16 118.82 602.89C122.17 606.62 122.9 613.19 118.98 616.31C116.04 618.65 111.78 618.22 108.18 617.15C98.8499 614.37 90.9599 608.24 82.4899 603.43C74.0199 598.62 63.9399 595.02 54.6499 597.95C45.3599 600.88 38.7999 612.84 44.3399 620.85C46.7899 624.38 50.8599 626.35 54.7599 628.16C75.0299 637.61 95.2999 647.07 115.58 656.52C132.17 664.26 148.77 671.99 165.55 679.31C173.19 682.64 181.14 685.94 189.48 685.89C197.81 685.84 206.69 681.57 209.62 673.76C212 667.4 209.96 660.11 206.23 654.43C202.5 648.75 197.24 644.3 192.39 639.54C169.39 616.92 155.73 587.17 144.03 557.6C133.41 530.73 98.1699 514.05 75.5799 496.89V496.9Z" fill="#D60B52"/>
<path d="M168.18 590.57C172.53 593.7 177.64 595.58 182.22 598.35C200.82 609.62 207.33 632.86 217.8 651.92C231.94 677.65 255.78 697.9 283.46 707.7C291.44 710.53 302.7 711.17 306 703.37C308.39 697.72 304.44 691.19 299.37 687.74C294.3 684.29 288.15 682.72 282.94 679.48C268.79 670.7 264.76 652.47 258.8 636.93C248.34 609.63 228.99 589.24 205.29 572.84C195.94 566.37 188.8 562.25 177.11 564.44C162.98 567.08 153.72 580.15 168.18 590.56V590.57Z" fill="#D60B52"/>
<path d="M29.5 703.35C20.45 708.47 14.33 719.02 15.8 729.31C16.65 735.2 20.36 741.06 26.08 742.71C30.51 743.99 35.22 742.6 39.62 741.22C54.7 736.49 69.77 731.75 84.85 727.02C86.93 726.37 89.24 725.51 90.11 723.51C91.16 721.09 89.52 718.39 87.81 716.38C74.33 700.57 48.6 692.53 29.5 703.34V703.35Z" fill="#D60B52"/>
<path d="M135.27 765.17C133.36 768.59 132.04 772.18 132.33 776.04C133.13 786.55 146.29 792.43 156.42 789.54C166.55 786.65 173.89 778.02 180.12 769.52C186.35 761.02 192.5 751.86 201.82 746.93C212.56 741.25 225.45 742.23 237.37 739.88C249.29 737.53 262.17 728.88 261.32 716.76C249.47 704.07 230.51 701.29 213.15 701.33C195.79 701.37 177.86 703.4 161.52 697.54C147.39 692.47 136 682.04 123.39 673.83C98.74 669.65 74.09 665.47 49.44 661.29C43.41 660.27 36.36 659.53 31.97 663.8C25.49 670.1 30.65 681.56 38.15 686.6C49.75 694.41 64.7 694.51 78.11 698.45C91.53 702.38 105.37 714.05 102.43 727.72C100.21 738.05 88.17 738.26 77.85 740.53C67.53 742.8 57.73 748.56 48.07 752.84C38.41 757.12 30.37 768.19 34.38 777.96C54.4 779.57 72.53 767.26 89.13 755.95C105.73 744.64 124.92 733.31 144.64 737.15C148.09 743.35 144.68 751.07 140.67 756.93C138.85 759.59 136.85 762.31 135.26 765.16L135.27 765.17Z" fill="#D60B52"/>
<path d="M58.49 989.79C57.85 990.59 57.21 991.37 56.53 992.13C52.18 997.04 45.53 1001.14 39.33 999.02C32.71 996.76 30.1 988 32.63 981.48C35.16 974.96 41.36 970.56 47.79 967.81C54.22 965.06 61.14 963.58 67.52 960.71C81.94 954.23 92.83 940.4 95.74 924.86C82.27 931.08 68.8 937.3 55.34 943.52C49.15 946.38 42.08 949.28 35.74 946.77C28.45 943.88 25.44 934.37 27.87 926.92C30.3 919.47 36.85 914.01 43.9 910.56C50.95 907.11 58.65 905.26 65.97 902.44C81.88 896.32 95.94 885.49 105.91 871.66C89.73 874.84 73.55 878.02 57.37 881.21C48.79 882.9 37.61 883.39 33.76 875.54C31.6 871.14 33.01 865.64 36.04 861.79C39.07 857.94 43.45 855.43 47.82 853.2C65.63 844.13 85.09 838.3 104.96 836.08C108.13 835.73 111.43 835.43 114.16 833.79C116.89 832.15 118.85 828.71 117.69 825.74C115.99 821.39 109.88 821.47 105.29 822.33C85.74 826 66.2 829.67 46.65 833.34C41.46 834.31 34.59 834.45 32.57 829.57C31.01 825.8 33.67 821.68 36.4 818.65C51.83 801.56 74.62 791.34 97.64 791.21C112.35 791.12 128.02 800.57 142.7 799.62C151.15 799.07 167.37 796.32 176.32 788.01C192.31 772.4 206.98 758.9 229.04 755.36C233.89 754.58 238.95 755.59 243.07 758.26C249.77 762.61 248.84 764.34 249.63 769.18C250.65 775.41 245.69 781.27 239.94 783.88C234.19 786.49 227.71 786.79 221.51 787.98C197.23 792.66 176.68 812.82 171.54 837C168.74 850.16 170 864.59 163.21 876.21C157.32 886.3 146.22 892.58 140.63 902.84C129.67 922.96 143.84 949.52 134.24 970.33C129.74 980.09 120.54 987.14 116.35 997.04C112.42 1006.34 113.42 1016.85 112.74 1026.92C110.27 1063.14 82.67 1096.25 47.5 1105.22C42.38 1106.52 36.42 1107.19 32.31 1103.88C27.92 1100.35 27.59 1093.48 30.02 1088.39C32.45 1083.3 36.97 1079.6 41.35 1076.06C49.58 1069.42 57.82 1062.77 66.05 1056.13C69.75 1053.15 73.53 1050.06 75.81 1045.89C78.08 1041.72 78.48 1036.16 75.5 1032.46C70.21 1025.91 59.59 1029.52 52.76 1034.45C45.93 1039.38 37.73 1045.5 29.97 1042.21C21.16 1038.48 21.25 1024.95 27.54 1017.74C33.83 1010.53 43.57 1007.66 52.36 1003.89C65.3 998.34 77.1 990.16 86.85 980.01C83.96 974.12 75.12 973.98 69.65 977.6C65.03 980.66 61.93 985.41 58.46 989.77L58.49 989.79Z" fill="#D60B52"/>
<path d="M196.31 812.09C190.94 823.06 192.77 836.04 194.94 848.06C197.11 860.08 199.43 872.86 194.86 884.19C186.66 904.56 159.41 912.67 152.46 933.5C146.59 951.09 156.92 973.52 144.65 987.42C137.96 995 125.43 998.55 123.96 1008.55C122.75 1016.77 130.53 1023.76 138.45 1026.25C152.81 1030.77 169.74 1025.3 178.74 1013.23C187.68 1001.25 188.52 985.08 195.35 971.79C201.51 959.81 212.14 950.88 221.44 941.14C230.74 931.4 239.31 919.53 239.49 906.06C239.73 887.92 224.72 871.61 227.07 853.62C227.96 846.78 231.31 840.55 234.06 834.23C239.34 822.08 239.73 805.71 225.07 799.86C214.54 795.65 201.07 802.36 196.3 812.09H196.31Z" fill="#D60B52"/>
<path d="M249.17 1106.61C249.2 1111.29 249.17 1116.12 251.08 1120.12C256.56 1131.55 274.44 1130.62 282.1 1140.72C287.33 1147.61 286.44 1158.03 292.42 1164.28C298.6 1170.74 310.28 1169.35 316.27 1162.7C322.26 1156.06 323.05 1145.88 320.17 1137.42C317.29 1128.95 311.28 1121.92 304.83 1115.73C298.38 1109.53 291.33 1103.92 285.57 1097.07C280.34 1090.86 276.28 1083.77 272.25 1076.72C264.84 1063.76 257.44 1050.81 250.03 1037.85C243.85 1027.04 237.51 1015.7 236.98 1003.26C235.55 969.67 293.28 923.94 279.83 913.95C266.38 903.96 218.95 949.66 205.92 981.07C198.3 999.44 194.26 1021.03 178.4 1033.04C169.23 1039.98 163.69 1043.75 146.5 1046.48C118.64 1052.06 98.57 1074.98 89.91 1086C81.26 1097.02 46.37 1173.73 58.88 1178.53C71.39 1183.33 77.36 1178.3 82.74 1170.9C88.12 1163.5 88.08 1153.4 92.59 1145.45C109.73 1115.21 133.12 1087.34 157.94 1071.91C167.2 1066.16 180.86 1065 188.68 1072.59C196.24 1079.92 194.59 1092.12 194.25 1102.64C193.73 1118.68 197.7 1134.85 205.59 1148.83C210.53 1157.58 217.51 1165.86 227.05 1168.99C236.6 1172.12 248.88 1168.26 252.33 1158.82C254.96 1151.63 251.95 1143.5 247.39 1137.35C242.82 1131.2 236.78 1126.29 232.1 1120.22C227.43 1114.15 224.14 1106.19 226.38 1098.87C228.63 1091.55 238.35 1086.65 244.43 1091.3C248.97 1094.77 249.11 1100.56 249.14 1106.59L249.17 1106.61Z" fill="#D60B52"/>
<path d="M142.46 1118.41C143.6 1126.2 145.3 1134.08 144.11 1141.86C142.92 1149.64 138.01 1157.48 130.36 1159.36C126.52 1160.3 122.48 1159.65 118.53 1159.79C114.58 1159.93 110.22 1161.19 108.25 1164.62C105.41 1169.57 109.12 1175.8 113.53 1179.43C127.68 1191.08 149.82 1190.23 164.57 1179.37C179.32 1168.51 186.72 1149.34 185.68 1131.04C184.84 1116.26 177.03 1096.19 163.33 1088.42C144.44 1077.71 140.57 1105.48 142.46 1118.41Z" fill="#D60B52"/>
<path d="M274.28 893.55C279.29 892.86 283.24 887.98 284.42 882.9C285.71 877.32 284.57 871.52 283.93 865.83C281.68 845.63 285.94 825.34 290.18 805.47C293.78 788.61 297.56 771.3 307.07 756.91C316.35 742.88 330.34 732.78 342.35 721C348.53 714.94 354.59 707.37 353.99 698.74C353.48 691.42 348.17 685.26 342.21 680.98C336.25 676.7 329.42 673.7 323.6 669.23C310.18 658.93 303.62 642.14 299.03 625.86C294.44 609.58 291 592.52 281.58 578.46C278.07 573.22 273.52 568.39 268.18 565.14C262.81 563.16 257.25 561.61 251.65 562.42C244.69 563.43 237.94 569.54 238.89 576.5C240.22 586.18 253.11 588.58 259.98 595.54C271.26 606.96 263.5 626.58 268.37 641.88C272.93 656.21 287.54 664.27 299.6 673.26C311.65 682.25 322.96 697.32 317.09 711.17C309.83 728.31 283.68 727.56 272.04 742.07C261.88 754.74 266.65 773.1 266.22 789.33C265.77 806.34 259.05 822.48 255.4 839.1C251.75 855.72 251.76 874.81 262.8 887.76C265.38 890.78 268.8 893.48 272.77 893.62C273.28 893.64 273.79 893.62 274.28 893.54V893.55Z" fill="#D60B52"/>
<path d="M92.28 20.3699C98.47 17.6299 105.97 19.6199 112.15 22.6699C138.13 35.4999 152.56 64.07 159.65 92.16C166.74 120.25 168.34 149.68 177.74 177.08C181.71 188.65 188.42 200.96 200.22 204.18C214.78 208.15 228.69 196.38 238.16 184.64C262.58 154.34 278.79 117.48 284.6 78.9899C286.19 68.4499 289.81 54.9199 300.45 54.2099C305.94 53.8399 311.06 57.6699 313.72 62.4899C316.38 67.3099 317.04 72.9599 317.35 78.4499C320.6 136.08 288.35 194.27 237.76 222.06C223.63 229.82 207.77 235.76 197.47 248.16C188.7 258.73 185.15 272.85 184.98 286.58C184.81 300.31 187.76 313.86 190.69 327.28C194.47 344.58 205.08 359.59 208.86 376.89C213.37 395.29 215.44 410.06 206.58 422.25C202.62 427.71 194.28 428.42 188.25 425.39C182.22 422.36 178.14 416.52 174.95 410.57C158.23 379.38 160.27 341.97 154.36 307.07C138.83 215.28 68.74 142.74 35.62 55.7399C31.6 45.1899 29.4 30.6499 39.12 24.9099C44.83 21.5399 52.44 23.2699 57.69 27.3099C62.94 31.3499 66.37 37.2599 69.66 43.0099C93.43 84.5599 117.2 126.12 140.97 167.67C142.48 130.98 128.4 93.8899 102.93 67.4399C96.44 60.7099 89.08 54.3799 85.34 45.8099C81.6 37.2399 82.97 25.4599 91.15 20.9299C91.52 20.7199 91.9 20.5399 92.28 20.3699Z" fill="#D60B52"/>
<path d="M183.36 21.03C178.02 17.29 172 14.12 165.49 13.63C158.98 13.14 151.92 15.83 148.69 21.5C145.23 27.57 146.91 35.45 150.68 41.33C154.45 47.21 159.99 51.68 164.93 56.62C183.75 75.45 194.07 102.49 192.57 129.07C191.99 139.38 189.73 149.78 191.61 159.94C193.49 170.1 201.19 180.28 211.52 180.48C224.31 180.73 232.11 166.88 236.99 155.05C248.75 126.61 260.5 98.16 272.26 69.72C275.58 61.68 278.96 53.4 279.07 44.71C279.18 36.02 275.27 26.69 267.43 22.93C257.52 18.18 245.19 24.17 239 33.24C232.81 42.31 231.15 53.62 229.3 64.45C227.45 75.28 224.95 86.6 217.61 94.78C222.68 89.13 214.48 62.66 211.68 56.18C205.64 42.16 195.88 29.81 183.35 21.03H183.36Z" fill="#D60B52"/>
<path d="M333.85 75.16C323.45 112.51 313.06 149.86 302.66 187.21C300.34 195.54 299.48 207.08 307.52 210.25C316.51 213.8 325.29 201.9 334.85 203.32C345.9 204.97 347.05 221.15 355.76 228.14C363.27 234.17 375.33 231.38 381.51 223.99C387.69 216.6 388.91 206.12 387.47 196.6C386.03 187.08 382.26 178.09 379.46 168.87C372.43 145.71 371.54 120.72 376.91 97.1199C380.55 81.1099 395.35 47.5299 373.72 37.6799C350.65 27.1799 338.34 59.01 333.84 75.16H333.85Z" fill="#D60B52"/>
<path d="M399.58 53.62C394.32 63.85 394.91 75.97 395.63 87.45C396.4 99.78 397.17 112.1 397.94 124.43C398.34 130.74 398.77 137.22 401.38 142.98C403.99 148.74 409.31 153.72 415.62 154.05C425.25 154.57 434.91 144.67 443.36 149.34C447.92 151.86 449.61 157.65 453.63 160.95C461.29 167.24 474.01 160.81 476.88 151.33C479.75 141.85 475.62 131.64 470.21 123.33C464.8 115.02 457.98 107.45 454.55 98.15C448.46 81.64 457.77 51.25 442.12 39.23C429.11 29.24 406.05 41.02 399.57 53.61L399.58 53.62Z" fill="#D60B52"/>
<path d="M274.54 254.98C281.96 246.97 291.65 237.03 287.37 226.98C283.3 217.42 269.73 216.87 259.95 220.36C233.32 229.88 215.82 257.13 211.65 285.1C207.48 313.07 214.7 341.59 225.21 367.84C227.63 373.87 230.48 380.16 235.86 383.81C241.24 387.46 249.86 387.06 253 381.37C254.95 377.84 254.29 373.53 254.52 369.5C254.75 365.47 256.75 360.79 260.75 360.3C268.12 359.39 268.69 371.63 274.62 376.1C279.9 380.07 288.01 376.07 290.87 370.12C293.73 364.17 293.07 357.22 292.93 350.62C292.34 323 302.58 295.29 320.99 274.69C325.16 270.02 329.79 265.63 332.78 260.12C335.77 254.61 336.85 247.56 333.63 242.18C329.74 235.68 320.67 233.8 313.46 236.13C306.25 238.46 300.57 244.02 295.63 249.76C285.82 261.17 277.74 274.07 271.75 287.88C269.49 293.09 267.45 298.55 263.73 302.85C249.81 318.94 251.83 297.31 254.91 288.16C259.04 275.9 265.75 264.49 274.54 254.99V254.98Z" fill="#D60B52"/>
<path d="M286.44 429.03C287.82 417.86 288.28 404.41 279.21 397.76C272.42 392.78 262.59 394.02 255.44 398.47C248.29 402.92 243.23 409.97 238.36 416.83C233.19 424.11 228.03 431.39 222.86 438.66C216.44 447.71 209.68 458.42 212.61 469.13C215.65 480.23 227.51 485.91 237.5 491.63C257 502.8 273.49 519.14 284.85 538.53C288.3 544.42 291.36 550.68 296.25 555.45C301.14 560.22 308.47 563.22 314.88 560.87C321.14 558.58 324.79 551.82 325.66 545.21C326.53 538.6 325.2 531.93 324.49 525.3C320.83 491.06 335.07 455.4 361.31 433.09C368.87 426.67 377.3 421.32 384.78 414.81C392.26 408.3 398.93 400.31 401.48 390.72C404.03 381.13 401.62 369.77 393.74 363.75C385.86 357.73 372.52 359.46 368.1 368.34C365.65 373.26 366.18 379.07 365.24 384.48C362.54 400.03 348.45 410.47 336.77 421.09C325.09 431.71 314.97 444.02 306.73 457.48C303.59 462.62 292.06 496.33 288.39 497.23C276.89 500.05 285.87 433.66 286.44 429.02V429.03Z" fill="#D60B52"/>
<path d="M316.06 291.04C307.25 295.9 305.85 308.18 308.19 317.97C310.53 327.76 315.49 337.08 315.49 347.14C315.49 358.08 309.65 368.02 304.98 377.91C300.31 387.81 296.71 399.47 301.15 409.46C305.57 413.44 312.67 413.01 317.84 410.05C323.01 407.09 326.68 402.16 330.2 397.36C340.16 383.8 350.12 370.25 360.08 356.69C368.22 345.61 376.42 334.42 382.1 321.9C387.78 309.37 390.81 295.24 388.1 281.76C386.83 275.46 384.18 269.2 379.33 264.97C374.48 260.74 367.15 259 361.42 261.91C353.6 265.88 351.68 276.22 352.27 284.97C352.84 293.44 355.73 304.66 350.85 312.47C347.52 317.8 340.73 321.8 336.9 315.55C334.09 310.97 339.1 302.38 335.77 296.61C331.91 289.92 322.91 287.24 316.06 291.02V291.04Z" fill="#D60B52"/>
<path d="M449.12 199.22C449.04 185.97 438 171.93 424.9 173.94C412.17 175.89 405.96 190.34 402.91 202.86C398.16 222.36 395.44 242.36 394.81 262.42C394.28 279.42 395.32 296.81 401.53 312.64C407.74 328.47 419.78 342.67 435.85 348.23C451.92 353.78 471.93 348.94 481.26 334.72C490.6 320.49 487.64 301.83 490.72 285.09C498.12 244.85 539.13 219.55 555.01 181.84C558.81 172.8 560.14 160.35 551.93 154.99C543.77 149.66 532.49 156.16 527.85 164.73C523.21 173.3 522.49 183.46 518.64 192.41C514.79 201.36 505.42 209.58 496.13 206.63C502.26 198.15 508.62 189 509.05 178.55C509.47 168.1 500.98 156.65 490.63 158.16C484.26 159.09 479.32 164.57 477.06 170.6C474.8 176.63 474.68 183.22 474.41 189.65C473.61 208.41 471.22 227.11 467.27 245.47C465.74 252.59 463.85 259.91 459.3 265.59C454.75 271.27 446.81 274.88 440.01 272.29C412.94 262.01 449.23 215.74 449.14 199.22H449.12Z" fill="#D60B52"/>
<path d="M372.45 470.54C371.44 461.56 362.96 452.82 354.21 455.1C344.94 457.52 342.24 469.15 341.24 478.69C338.83 501.8 336.42 524.92 334 548.03C331.42 572.72 328.85 597.4 326.27 622.09C325.3 631.39 324.94 642.31 332.08 648.35C338.69 653.93 349.34 652.26 355.77 646.48C362.2 640.7 365.1 631.92 366.29 623.36C367.48 614.8 367.24 606.07 368.71 597.55C373.35 570.65 396.64 548.05 423.67 544.22C428.67 543.51 433.84 543.36 438.52 541.44C443.2 539.52 447.37 535.21 447.2 530.16C447.01 524.4 441.22 520.17 435.5 519.38C429.79 518.59 424.07 520.27 418.41 521.35C412.75 522.42 406.49 522.79 401.61 519.72C408.89 503.06 415.95 486.31 422.78 469.46C427.45 457.94 432.04 446.3 434.45 434.1C436.23 425.1 435.18 413.19 426.48 410.29C420.9 408.43 414.67 411.65 411.13 416.34C407.59 421.03 406.12 426.91 404.58 432.58C396.34 462.9 383.83 492.06 367.55 518.94C367.57 511.02 365.99 501.73 367.17 493.96C368.41 485.75 373.49 479.35 372.45 470.54Z" fill="#D60B52"/>
<path d="M399.61 565.83C392.75 568.33 390.47 576.71 389.15 583.9C385.95 601.35 382.74 618.81 379.54 636.26C376.18 654.59 372.81 672.91 369.66 691.27C368.54 697.77 367.47 704.59 369.55 710.85C371.63 717.11 377.95 722.49 384.41 721.15C389.83 720.02 393.44 714.69 394.81 709.33C396.18 703.97 395.91 698.33 396.77 692.86C399.44 675.88 412.91 662.29 428.11 654.26C443.31 646.23 460.38 642.67 476.88 637.83C493.38 632.99 510.07 626.42 521.89 613.95C535.26 599.84 541.07 579.57 555.52 566.58C573.49 550.43 600.13 549.36 622.07 539.24C627.22 536.86 632.26 533.86 635.69 529.34C639.12 524.82 640.65 518.53 638.35 513.35C635.63 507.22 628.28 504.22 621.59 504.61C614.9 505 608.69 508.08 602.76 511.21C560.12 533.67 520.27 561.41 484.42 593.62C473.19 578.66 475.09 555.41 488.58 542.45C495.12 536.17 503.66 532.38 510.61 526.56C517.56 520.74 523.05 511.42 520.13 502.84C516.72 492.79 504.41 489.51 493.95 487.73C483.99 486.03 474.03 484.33 464.07 482.63C455.32 481.14 444.9 480.18 438.97 486.78C432 494.53 436.97 507.91 445.97 513.16C454.97 518.41 466.08 517.9 476.48 517.24C461.35 527.41 451.35 544.84 450.2 563.03C449.72 570.68 450.71 578.35 450.79 586.01C450.87 593.67 449.93 601.63 445.97 608.2C436.74 623.51 413.83 620.35 413.46 601.39C413.3 592.93 423.15 557.27 399.61 565.84V565.83Z" fill="#D60B52"/>
<path d="M324.32 761.24C320.71 766.52 317.61 772.48 317.42 778.88C317.23 785.28 320.65 792.13 326.69 794.25C332.26 796.2 338.47 793.78 343.2 790.25C347.93 786.72 351.79 782.11 356.63 778.75C366.11 772.16 378.21 771.03 389.72 770.11C407.8 768.66 425.87 767.21 443.95 765.76C455.7 764.82 467.69 763.89 479.15 766.68C499.2 771.57 514.66 786.94 530.62 800.02C546.58 813.11 566.51 824.96 586.72 820.77C592.57 819.56 599.04 815.68 598.94 809.71C598.86 804.82 594.41 801.28 590.39 798.5C577.07 789.28 563.75 780.07 550.44 770.85C536.76 761.38 523.03 751.89 508.27 744.21C489.14 734.27 469.33 724.6 447.93 727.2C443.38 727.75 435.08 729 440.52 722.38C445.66 716.13 497.3 716.16 525.57 712.59C530.04 712.02 534.65 711.42 538.56 709.18C542.47 706.94 545.57 702.65 545.01 698.18C544.03 690.45 534.23 687.94 526.47 687.27C507.3 685.6 488.14 683.93 468.97 682.26C459.49 681.43 449.88 680.61 440.49 682.22C431.11 683.83 421.82 688.17 416.2 695.86C408.92 705.83 408.57 720.12 399.7 728.69C387.51 740.47 374.13 733.08 360.1 733.52C345.87 733.97 331.75 750.36 324.32 761.23V761.24Z" fill="#D60B52"/>
<path d="M357.29 794.82C347.41 805.29 337.54 815.77 327.66 826.24C320.06 834.3 312.12 843 310.14 853.9C307.9 866.19 313.73 878.61 313.13 891.09C312.25 909.12 298.51 923.51 285.82 936.35C273.13 949.19 259.83 964.28 260.2 982.32C260.38 991.1 266.11 1001.16 274.88 1000.83C282.28 1000.55 287.19 993.31 290.84 986.87C300.46 969.9 310.09 952.94 319.71 935.97C328.47 920.52 337.43 904.49 339.25 886.82C340.45 875.19 338.57 862.91 343.25 852.2C351.78 832.71 375.55 825.61 387.45 808.68C393.2 800.5 393.3 790.63 383.38 785.27C373.1 779.71 364.08 787.62 357.29 794.82Z" fill="#D60B52"/>
<path d="M423.26 801.67C423.87 794.04 422.26 784.14 414.78 782.51C410.04 781.48 405.24 784.78 402.79 788.97C400.34 793.16 399.63 798.1 398.61 802.85C394.99 819.67 386.76 835.47 375.05 848.07C364.89 859.01 351.56 868.61 348.26 883.17C345.44 895.63 350.84 908.76 348.5 921.31C345.63 936.67 332.22 947.35 321.98 959.15C294.66 990.66 288.24 1038.72 306.34 1076.3C308.15 1080.06 311.59 1084.33 315.55 1083.04C318.56 1082.06 319.66 1078.46 320.32 1075.37C327.95 1039.9 335.58 1004.42 343.21 968.95C344.11 964.77 345.11 960.39 347.99 957.23C350.87 954.07 356.28 952.81 359.4 955.73C363.71 959.77 360.32 966.82 357.27 971.88C344.65 992.77 341.18 1017.74 337.97 1041.93C335.45 1060.93 332.93 1079.94 330.41 1098.94C329.81 1103.44 329.49 1108.73 332.87 1111.76C335.67 1114.27 340.13 1114.1 343.43 1112.31C346.73 1110.52 349.11 1107.42 351.23 1104.32C376.18 1067.91 379.18 1021.29 381.37 977.21C382.15 961.5 382.93 945.79 383.71 930.07C384.9 906.03 389.67 888.78 401.89 868.34C414.11 847.9 421.41 824.81 423.28 801.66L423.26 801.67Z" fill="#D60B52"/>
<path d="M404.06 995.23C396.88 1000.28 393.09 1009.01 391.67 1017.68C390.25 1026.34 390.85 1035.19 390.57 1043.97C389.62 1073.78 378.06 1103.15 358.44 1125.62C352.21 1132.75 344.65 1141.06 346.87 1150.26C349.17 1159.76 361.79 1163.75 370.76 1159.85C379.72 1155.95 385.22 1146.72 388.34 1137.45C391.46 1128.18 392.79 1118.34 396.57 1109.32C400.35 1100.3 413.44 1087.3 416.96 1089.91C420.48 1092.52 407.93 1121.33 403.41 1137.04C401.73 1142.88 400.7 1150.58 405.87 1153.78C409.41 1155.97 414.27 1154.54 417.24 1151.62C420.21 1148.7 421.72 1144.66 423.15 1140.75C440.04 1094.52 456.94 1048.29 473.83 1002.05C476.59 994.5 479.39 986.6 478.4 978.62C477.41 970.64 471.3 962.69 463.26 962.5C453.97 962.28 447.68 971.6 443.43 979.86C439.34 987.8 436.05 994.71 427.07 994.81C418.37 994.9 413.43 988.67 404.06 995.26V995.23Z" fill="#D60B52"/>
<path d="M450.04 822.08C442.85 822.74 438.26 829.83 434.78 836.17C430.31 844.32 425.83 852.46 421.36 860.61C412.28 877.14 403.14 893.84 397.78 911.92C392.42 930 391.1 949.85 397.66 967.53C400.52 975.25 406.37 983.35 414.6 983.31C422.71 983.27 428.64 974.96 429.67 966.92C430.7 958.88 428.35 950.83 427.43 942.78C425.43 925.23 436.65 890.66 441.42 893.05C446.28 896.26 436.57 917.09 440.21 928.47C443.85 939.85 455.86 949.51 467.34 946.15C476.01 943.61 481.47 934.49 482.31 925.5C483.15 916.51 480.25 907.61 476.96 899.2C471.8 885.98 458.68 869.81 460.71 855.73C462.11 846.03 470.63 820.21 450.03 822.09L450.04 822.08Z" fill="#D60B52"/>
<path d="M464.32 41.7299C462.91 47.4199 463.59 53.4099 464.42 59.2099C468.3 86.4499 475.88 114.57 494.88 134.47C505.77 145.88 521.81 154.25 537.1 150.37C546.15 148.07 553.68 141.8 560.02 134.94C580.37 112.91 591.17 83.9599 601.49 55.7999C604.1 48.6799 606.53 40.1099 601.96 34.0599C596.39 26.6799 584.48 28.7499 576.96 34.1099C564.04 43.3199 557.1 60.2199 559.81 75.8599C560.52 79.9699 561.84 83.9999 561.88 88.1699C561.92 92.3399 560.32 96.8699 556.66 98.8699C551.88 101.47 545.56 98.4699 542.84 93.7599C540.12 89.0499 540.13 83.2699 540.66 77.8599C541.49 69.3299 543.39 60.6299 541.39 52.2899C539.39 43.9499 531.76 36.0799 523.31 37.5199C515.47 38.8499 510.78 47.4999 510.53 55.4499C510.28 63.3999 513.22 71.0599 514.87 78.8399C515.51 81.8599 515.95 85.0699 514.93 87.9899C513.91 90.9099 511.03 93.3899 507.97 92.9699C503.9 92.4099 502.1 87.6399 501.11 83.6499C497.34 68.5499 495.51 50.8599 489.53 36.5299C483.87 22.9799 467.39 29.4199 464.34 41.7299H464.32Z" fill="#D60B52"/>
<path d="M505.82 287.63C506.69 288.56 507.82 289.32 508.95 289.93C511.61 291.37 514.54 292.4 517.56 292.59C522.2 292.89 526.81 291.22 530.74 288.73C543.51 280.63 553.21 268.51 566.85 261.37C600.04 243.99 633.67 226.31 661.09 200.78C684.56 178.93 703.17 151.59 729.88 133.84C740.22 126.97 751.56 121.7 761.89 114.81C785.84 98.82 803.74 74 811.35 46.22C813.73 37.54 814.33 26.51 806.97 21.34C800.31 16.66 790.61 19.94 785.13 25.95C779.65 31.96 777.09 39.99 773.66 47.37C765.38 65.22 751.2 80.28 733.88 89.62C730.03 91.7 725.86 93.54 721.48 93.53C717.1 93.52 712.47 91.23 710.9 87.15C708.79 81.64 712.85 75.68 717.45 71.99C724.59 66.27 733.43 63.04 740.88 57.72C748.33 52.4 754.64 43.65 752.8 34.68C751.09 26.33 742.39 20.61 733.87 20.55C725.35 20.49 717.34 25.12 711.47 31.29C705.6 37.46 701.52 45.08 697.52 52.6C683.5 78.97 669.48 105.33 655.46 131.7C653.09 136.17 650.6 140.76 646.63 143.9C642.66 147.04 636.77 148.32 632.52 145.59C628.58 143.05 627.15 137.77 627.86 133.14C628.57 128.51 631.01 124.34 633.4 120.31C643.56 103.17 653.72 86.02 663.88 68.88C668.5 61.09 673.25 51.77 669.74 43.43C665.3 32.88 650.22 31.4 639.89 36.34C628.9 41.59 620.9 51.73 615.62 62.71C610.34 73.69 607.47 85.63 604.16 97.35C589.25 150.07 564.75 203.88 530.63 247.12C522.03 258.02 510.25 267.04 505.1 280.33C504.52 281.83 504.03 283.46 504.37 285.04C504.59 286.05 505.12 286.92 505.82 287.68V287.63Z" fill="#D60B52"/>
<path d="M446.51 415.02C462.55 420.81 480.25 426.61 496.22 420.63C508.09 416.18 516.83 405.83 522.95 394.73C529.08 383.64 533.11 371.5 538.92 360.24C554.22 330.57 580.95 308.48 608.67 289.88C636.4 271.28 666 255.17 691.09 233.13C716.18 211.1 736.9 181.67 739.8 148.41C732.91 145.42 724.67 148.96 719.55 154.46C714.43 159.96 711.52 167.09 707.87 173.66C694.58 197.55 671.18 214.1 647.06 226.98C622.94 239.86 597.25 249.98 574.65 265.37C543.56 286.53 519.25 317.49 506.06 352.7C495.42 381.1 481.82 397.44 451.22 383.23C442.87 379.35 436.38 375.33 428.36 383.06C413.34 397.54 434.03 410.51 446.5 415.01L446.51 415.02Z" fill="#D60B52"/>
<path d="M596.56 322.31C589.74 327.73 582.42 334.01 581.22 342.64C579.22 357.03 596.73 367.83 610.99 365.04C625.25 362.25 637.52 334.3 645.9 340.29C654.28 346.28 651.79 349.1 655.6 360.21C659.41 371.32 661.38 395.98 673.04 394.62C689 392.75 695.83 373.85 700.05 358.35C722.19 277.05 765.95 201.74 825.61 142.24C831.47 136.4 837.6 130.54 841.19 123.08C844.78 115.62 845.29 106.05 840.16 99.56C833.8 91.51 821.06 91.24 812.06 96.16C798.35 103.65 789.95 120.14 780.91 132.28C767.24 150.63 755.9 170.1 743.98 189.6C708.7 247.34 648.47 281.01 596.57 322.31H596.56Z" fill="#D60B52"/>
<path d="M547 489.8C540.15 512.96 507.73 533.51 508.94 551.46C509.79 564 607.6 500.03 649.95 464.2C657.55 457.77 669.29 443.71 671.28 433.95C673.27 424.19 675.8 406.07 665.91 407.3C659.3 408.12 649.44 419.87 647.43 426.21C645.42 432.55 636.71 446.62 635.08 453.07C630.98 469.34 604.11 489.02 599.52 484.33C597.96 482.73 612.99 467.75 620.39 449.34C634.73 413.68 647.6 363.24 646.03 358.89C643.66 352.3 630.57 357.32 624.77 362.33C618.97 367.34 615.5 374.47 612.2 381.39C602.8 401.09 595.27 447.21 579.22 461.64C570.91 469.12 562.12 458.25 556.25 461.64C551.95 464.12 550.02 479.25 546.99 489.79L547 489.8Z" fill="#D60B52"/>
<path d="M465.99 471.97C494.43 477.15 524.94 469.61 547.7 451.78C570.46 433.95 600.85 404.93 586.86 377.28C581.47 366.75 568.5 383.2 562.98 391.08C545.1 416.62 534.57 446.9 497.4 444.83C485.1 444.14 469.77 438.47 457.94 444.7C440.23 454.03 450.39 469.12 465.99 471.96V471.97Z" fill="#D60B52"/>
<path d="M841.91 37.81C834.65 43.25 827.07 50.31 827.02 59.38C826.96 69.77 833.43 81.79 843.3 85.01C867.49 92.91 882.8 111.54 869.66 127.57C853.39 147.42 826.2 159.76 812.94 175.68C787.95 205.68 767.17 239.96 752.49 276.14C736.4 315.81 715.22 353.04 702.24 393.99C700.78 398.59 699.63 404.27 703.03 407.7C704.8 409.48 707.42 410.15 709.93 410.24C720.58 410.65 729.65 402.31 735.19 393.21C741.21 383.3 746.37 372.64 752.05 362.52C795.47 285.23 834.51 194.82 914.24 142.84C926.23 135.02 939.12 127.49 946.86 115.44C954.6 103.4 955 85.15 943.54 76.57C937.72 72.21 930.13 71.16 922.9 70.48C915.67 69.8 908.13 69.25 901.81 65.64C895.49 62.03 890.86 54.29 893.33 47.46C897.01 37.28 910.28 37.43 918.44 33.14C930.84 26.61 932.37 11.32 918.95 4.01999C908.34 -1.75001 896.8 6.35999 887.22 10.95C871.28 18.58 856.07 27.2 841.9 37.81H841.91Z" fill="#D60B52"/>
<path d="M863.41 207.34C832.43 254.67 801.45 302 770.47 349.33C764.2 358.91 757.76 371.1 763.31 381.12C767.04 387.85 775.32 391 783.02 390.78C790.72 390.56 798.02 387.55 805.12 384.6C830.64 373.98 856.15 363.37 881.67 352.75C898.65 345.68 916.04 338.36 929.43 325.74C942.82 313.12 951.54 293.86 946.61 276.13C934.82 274.23 923.88 282.64 916.19 291.77C908.5 300.9 901.91 311.61 891.38 317.24C880.85 322.87 864.61 320.13 861.41 308.63C859.12 300.41 864.63 291.77 871.73 287.04C878.83 282.31 887.35 280.32 895.24 277.08C924.58 265.04 958.52 217.64 943.37 201.85C928.22 186.06 906.7 231.61 888.37 246.5C884.43 249.7 879.82 253.09 874.81 252.3C866.7 251.03 864.38 239.36 868.78 232.43C873.18 225.5 881.27 222.08 888.55 218.28C900.38 212.1 955.39 171 935.28 157.37C925.85 150.98 906.42 160.68 898.77 165.89C883.61 176.22 873.29 192.27 863.42 207.35L863.41 207.34Z" fill="#D60B52"/>
<path d="M749.36 412.43C739.67 414.62 727.66 419.63 728.05 429.56C728.45 439.74 741.35 443.61 751.49 444.71C810.42 451.11 873.18 468.76 932.28 454.41C939.26 452.72 945.74 449.52 947.82 442.65C950.89 432.48 947.89 423.89 937.7 420.9C914.12 413.98 874.2 442.39 854.6 426.71C850.24 423.22 846.58 422.42 848.94 417.36C852.84 408.98 864.68 409.69 873.9 410.38C903.17 412.58 948.14 391.55 943.82 373.87C939.5 356.19 914.66 355.39 910.04 355.76C889.97 357.38 861.56 376.78 843.24 384.69C812.57 397.94 782.01 405.05 749.37 412.43H749.36Z" fill="#D60B52"/>
<path d="M731.3 467.03C725.87 471.46 721.44 478.14 722.46 485.08C723.58 492.7 730.91 498.01 738.33 500.06C745.75 502.11 753.62 501.8 761.2 503.14C778.59 506.22 793.33 517.78 805.24 530.82C817.15 543.86 827.01 558.7 839.38 571.3C846.91 578.97 855.48 585.84 865.38 590.03C881.32 596.77 899.55 596.05 916.4 592.08C925.41 589.96 935.49 585.66 937.82 576.7C939.91 568.7 934.36 560.23 927 556.46C919.64 552.69 910.98 552.58 902.73 553.08C894.48 553.58 886.08 554.58 878.02 552.75C875.19 552.11 872.33 551.05 870.29 548.99C868.25 546.93 867.2 543.67 868.4 541.02C870.17 537.12 875.36 536.49 879.64 536.42C892.41 536.21 905.18 536.01 917.94 535.8C921.8 535.74 925.76 535.66 929.33 534.21C932.9 532.76 936.07 529.63 936.39 525.79C936.73 521.8 933.91 518.08 930.41 516.12C926.91 514.16 922.83 513.62 918.86 513.11C908.98 511.84 899.09 510.57 889.21 509.3C884.39 508.68 878.55 507.22 877.31 502.52C876.57 499.72 877.96 496.65 880.2 494.82C882.44 492.99 885.38 492.21 888.27 491.97C894.55 491.44 900.77 493.2 906.94 494.52C913.11 495.84 919.69 496.69 925.59 494.46C931.49 492.23 936.3 485.98 934.88 479.84C933.81 475.21 929.56 471.86 925.01 470.51C920.46 469.16 915.61 469.44 910.87 469.73C893.07 470.84 875.24 471.94 857.41 471.43C833.55 470.75 809.9 467.18 786.48 462.8C767.14 459.18 748.33 453.14 731.3 467.04V467.03Z" fill="#D60B52"/>
<path d="M829.03 767.05C814.75 758.54 800.47 750.02 786.19 741.51C774.41 734.49 760.99 724.34 762.64 710.72C763.99 699.66 775.41 692.32 786.45 690.77C797.49 689.22 808.64 691.8 819.78 692.23C830.92 692.66 843.27 690.27 850.07 681.44C857.43 671.89 855.53 657.44 848.22 647.84C840.91 638.24 829.4 632.76 817.83 629.35C811.07 627.36 804.09 625.94 797.74 622.9C791.39 619.86 785.57 614.84 783.53 608.1C780.79 599.03 785.38 589.52 786.2 580.08C787.52 564.94 778.63 550.16 766.22 541.4C753.81 532.64 738.38 529.14 723.23 528.08C708.08 527.02 692.85 528.21 677.66 527.87C668.37 527.66 657.08 525.4 654.17 516.57C652.24 510.73 655.01 504.48 657.72 498.95C662.82 488.54 671.61 475.58 673.01 467.73C674.41 459.88 672.13 451.73 674.79 444.27C678.02 435.22 686.74 427.36 696.29 428.43C704.65 429.37 711.19 437.06 712.63 445.34C714.07 453.62 711.19 462.17 706.68 469.26C701.63 477.21 694.15 485.14 695.55 494.45C696.72 502.21 704.01 507.75 711.53 509.98C719.05 512.21 727.05 512 734.82 513.12C758.05 516.47 777.95 520.35 793.85 537.61C809.75 554.87 822.77 585.94 839.1 602.8C849.14 613.17 865.85 615.16 875.19 626.16C884.53 637.16 886.58 657.7 887.18 672.12C887.78 686.54 880.02 701.92 866.48 706.91C854.59 711.3 838.39 708.58 831.76 719.38C828.68 724.4 829.07 731 831.54 736.35C834.01 741.7 838.3 745.99 842.82 749.77C846.89 753.18 851.38 756.48 853.61 761.31C855.84 766.14 854.65 773.04 849.7 774.99C845.63 776.59 841.17 774.28 837.41 772.04C834.61 770.37 831.81 768.7 829 767.03L829.03 767.05Z" fill="#D60B52"/>
<path d="M616.66 586.79C601.48 594.42 584.22 596.76 568.31 602.73C552.4 608.7 528.72 621.88 533.47 636.82C538.22 651.76 596.65 633.84 626.71 622.99C656.77 612.14 689.81 601.72 720.02 612.16C728.35 615.04 738.83 619 744.88 612.58C751.67 605.37 743.79 592.81 734.15 590.52C724.51 588.23 714.57 591.84 704.69 592.54C696.77 593.1 687.16 590.46 684.97 582.81C682.9 575.61 685.67 569.93 693.91 569.06C701.85 568.22 709.28 572.07 716.89 573.56C722.7 574.7 779.77 581.79 773.81 565.02C771.12 557.44 753.6 551.01 745.59 550.22C730.54 548.74 714.85 545.43 699.8 543.94C690.28 543 668.97 541.66 659.61 545.22C650.25 548.78 647.97 558.38 642.45 565.48C635.49 574.42 626.71 581.54 616.68 586.77L616.66 586.79Z" fill="#D60B52"/>
<path d="M493.57 663.87C495.46 680.14 531.51 682.12 542.89 684.66C559.39 684.66 579.26 692.79 595.42 696.41C612.68 700.27 629.89 704.06 647.53 705.73C676.52 708.48 705.72 705.71 734.7 702.94C741.66 702.27 749.98 700.62 752.44 694.08C754.53 688.51 750.75 682.12 745.54 679.24C740.33 676.36 734.13 676.12 728.18 675.94C694.59 674.93 627.59 682.19 627.4 672.92C627.21 663.65 708.53 643.32 757.53 658.87C769.3 662.6 801.99 669.15 814.16 667.06C826.33 664.97 838.38 661.04 834.13 649.45C832.42 644.77 791.79 635.17 786.18 634.31C749.68 628.75 712.64 629.17 676.03 633.45C640.22 637.63 603.83 649.09 567.77 649.27C554.9 649.34 490.7 639.27 493.55 663.87H493.57Z" fill="#D60B52"/>
<path d="M903.14 656.37C904.77 666.27 908.33 675.82 909.3 685.8C910.27 695.78 908.06 706.9 900.29 713.24C891.4 720.5 876.6 720.64 871.51 730.93C868.14 737.73 870.84 745.83 873.56 752.92C878.96 767 884.5 781.31 893.83 793.15C902.76 804.5 916.37 813.56 930.74 812.18C945.12 810.8 957.93 795.34 952.69 781.88C947.09 767.5 926.31 763.66 921 749.17C916.61 737.17 925.05 724.56 933.37 714.86C941.69 705.16 951.02 693.71 948.55 681.17C946.63 671.41 937.65 662.97 939.55 653.21C940.93 646.09 947.65 641.4 951.24 635.1C962 616.23 939.74 594.49 920.44 601.77C901.64 608.86 900.41 639.93 903.12 656.36L903.14 656.37Z" fill="#D60B52"/>
<path d="M555.48 733.54C551.17 736.34 546.47 739.72 545.63 744.79C544.54 751.31 550.31 756.8 555.71 760.6C573.82 773.33 594.44 782.47 616.03 787.34C629.65 790.41 643.68 791.82 656.95 796.15C698.94 809.88 726.38 850.06 764.67 872.08C770.7 875.55 777.21 878.62 784.15 878.94C791.09 879.27 798.57 876.3 801.89 870.19C808.11 858.72 797.2 845.65 786.87 837.68C749.83 809.09 709.41 777.96 664.24 765.73C656.6 763.66 631.39 758.97 628.88 751.46C625.67 741.85 650.06 744.39 660.07 742.83C670.08 741.27 680.37 744.11 690.39 742.6C700.41 741.09 710.84 732 707.78 722.35C705.94 716.56 669.66 715.13 664.03 714.9C650.01 714.33 636.31 716.14 622.34 714.41C609.22 712.78 598.72 703 588.15 706.32C581.87 708.3 581.65 721.37 575.24 727.9C570.74 732.48 560.12 730.5 555.48 733.52V733.54Z" fill="#D60B52"/>
<path d="M702.2 757.9C700.76 764.13 740.82 782.44 754.19 792.31C778.67 810.38 786.97 823.4 805.33 846.47C810.3 852.71 815.15 859.21 821.55 863.98C827.95 868.75 836.29 871.63 843.99 869.55C852.5 867.25 858.06 858.76 855.14 850.14C853.24 844.54 848.83 840.21 844.4 836.3C831.32 824.75 795.02 808.52 807.19 798.96C819.36 789.4 884.41 840.02 923.02 860.55C926.64 862.48 930.4 864.44 934.5 864.73C938.6 865.02 943.14 863.16 944.68 859.36C947.29 852.94 940.44 846.89 934.51 843.3C907.65 827.06 880.72 810.93 853.78 794.83C829.41 780.27 803.59 767.65 779.71 752.45C769.85 746.18 749.9 721.07 736.79 728.04C732.48 730.33 730.51 741.2 727.43 745.11C721.48 752.68 706.29 740.25 702.21 757.9H702.2Z" fill="#D60B52"/>
<path d="M602.19 916.35C600.17 914.9 598.04 913.6 595.75 912.49C582.77 906.17 566.43 906.77 555.6 897.23C550.02 892.32 546.76 885.37 542.6 879.21C538.44 873.05 532.54 867.19 525.13 866.61C522.47 866.4 519.48 867.09 518.01 869.32C517.26 870.45 517.01 871.84 516.92 873.19C516.27 882.79 522.9 891.32 530.05 897.76C537.2 904.2 545.47 909.88 550.01 918.36C555.95 929.44 551.84 946.16 536.88 944.86C531.32 944.38 526.24 941.31 522.29 937.37C489.61 904.82 475.45 852.2 475.38 807.43C475.37 799.54 479.13 790.07 487.37 787.66C497.31 784.76 504.57 792.8 510.21 799.7C526.99 820.23 535.03 847.31 555.97 864.52C570.19 876.2 588.35 881.74 604.4 890.74C629.84 905.01 649.99 928.47 660.24 955.78C661.71 959.71 662.73 964.8 659.56 967.55C656.48 970.23 651.67 968.68 648.19 966.55C628.77 954.61 620.29 929.36 602.19 916.35Z" fill="#D60B52"/>
<path d="M497.52 971.66C496.31 982.04 499.29 992.41 500.19 1002.83C502.53 1029.95 490.7 1056.18 477.43 1079.94C464.16 1103.7 448.92 1127.1 443.35 1153.74C441.84 1160.98 442.71 1170.92 449.92 1172.56C456.19 1173.99 461.24 1167.63 464.52 1162.11C492.95 1114.16 521.39 1066.21 549.82 1018.26C554.82 1009.83 559.99 1000.76 559.52 990.97C559.03 980.68 552.18 971.53 543.7 965.68C527.31 954.36 500.98 941.97 497.5 971.66H497.52Z" fill="#D60B52"/>
<path d="M559.83 951.4C557.14 961.28 563.61 971 568.15 980.18C578.95 1002.01 579.38 1028.71 569.28 1050.87C552.77 1087.13 510.86 1110.27 504.15 1149.54C502.8 1157.47 504.47 1167.72 512.17 1170.04C519.87 1172.37 526.77 1164.96 531.42 1158.4C556.7 1122.74 581.97 1087.08 607.25 1051.41C607.3 1072.2 599.78 1092.94 586.41 1108.86C579.63 1116.93 571.35 1123.9 566.27 1133.13C561.19 1142.36 560.24 1155.12 567.74 1162.52C576.64 1171.3 592.5 1167.54 601.22 1158.58C609.94 1149.62 613.79 1137.17 618.91 1125.76C621.21 1120.63 624.91 1114.91 630.54 1114.88C636.79 1114.84 640.67 1122.19 640.28 1128.43C639.89 1134.67 636.8 1140.42 635.72 1146.57C633.06 1161.75 645.95 1186.92 660.27 1179.84C674.59 1172.76 664.1 1080.03 666.02 1030.12C666.61 1014.68 665.93 996.52 653.27 987.66C644.05 981.21 631.47 982.13 622.51 975.17C615.93 970.06 613.98 962.21 609.34 955.57C599.74 941.85 566.87 925.52 559.83 951.39V951.4Z" fill="#D60B52"/>
<path d="M687.56 993.46C679.08 1031.23 675.78 1070.15 677.78 1108.81C678.38 1120.32 679.47 1131.97 683.55 1142.75C687.63 1153.53 695.02 1163.47 705.43 1168.41C704.81 1143.98 691.81 1095.58 703.57 1095.12C715.33 1094.66 720.78 1138.15 734.72 1156.45C748.67 1174.75 768.78 1189.57 791.66 1191.97C798.07 1192.64 805.42 1191.94 809.5 1186.95C815.02 1180.2 811.07 1169.47 804.18 1164.13C797.29 1158.79 788.41 1156.95 780.37 1153.57C755.48 1143.1 739.49 1117.73 732.87 1091.55C726.25 1065.37 727.49 1037.96 727.72 1010.96C727.82 999.71 729.54 961.01 715.78 955.7C700.01 949.61 689.69 984 687.57 993.47L687.56 993.46Z" fill="#D60B52"/>
<path d="M571.26 846.66C569.62 852.61 573.6 858.89 578.81 862.2C584.02 865.51 590.26 866.66 596.19 868.36C618.85 874.86 638.7 890.65 650.12 911.28C654.45 919.1 657.62 927.57 662.57 935.01C667.52 942.45 674.79 949.01 683.64 950.28C692.49 951.55 702.58 945.76 703.59 936.88C704.44 929.37 699 922.59 693.01 917.98C687.03 913.37 680.04 909.79 675.47 903.78C667.41 893.2 668.94 878.17 663.57 866C657.54 852.34 643.26 843.77 628.63 840.75C619.04 838.77 574.75 833.93 571.24 846.66H571.26Z" fill="#D60B52"/>
<path d="M635.22 828.43C640.11 831.06 645.82 831.61 651.34 832.24C656.86 832.87 659.76 837.52 664.4 840.59C671.59 845.35 673.56 850.15 674.61 858.71C675.66 867.27 684.08 884.59 691.37 889.21C712.59 902.65 717.43 917.2 732.8 936.25C746.01 952.61 748.82 975 748.38 996.02C747.94 1017.04 744.78 1038.22 748.12 1058.98C754.12 1096.27 781.04 1127.9 813.78 1146.73C846.52 1165.56 884.59 1173.05 922.22 1176.28C925.79 1176.59 929.95 1176.63 932.27 1173.89C934.65 1171.08 933.7 1166.56 931.19 1163.87C928.68 1161.18 925.07 1159.87 921.6 1158.66C897.83 1150.34 874.07 1142.01 850.3 1133.69C838.51 1129.56 824.87 1123.35 822.83 1111.02C821.12 1100.67 828.59 1091.39 834.22 1082.54C847.79 1061.22 852.26 1034.31 846.32 1009.75C844.42 1001.89 841.24 993.9 834.95 988.82C828.66 983.74 818.61 982.63 812.76 988.22C806.58 994.13 807.51 1004.07 808.91 1012.51C811.06 1025.45 813.2 1038.4 815.35 1051.34C816.25 1056.78 817.15 1062.41 815.82 1067.76C814.49 1073.11 810.31 1078.16 804.82 1078.72C796.98 1079.51 791.28 1071.47 788.45 1064.12C771.34 1019.59 792.26 965.37 768.89 923.78C756.26 901.3 733.04 887.21 710.83 874.13C706.43 871.54 699.98 850.15 695.81 844.72C688.7 835.47 679.86 827.53 669.9 821.45C661.84 816.52 648.59 809.18 639.1 808.37C625.56 807.22 623.63 822.19 635.23 828.44L635.22 828.43Z" fill="#D60B52"/>
<path d="M792.28 963.14C799.38 971.45 812.45 968.66 823.37 968.97C844.69 969.57 862.56 984.38 878.91 998.07C895.26 1011.76 914.11 1025.82 935.39 1024.49C940.73 1024.16 947.16 1021.54 947.42 1016.2C947.64 1011.87 943.6 1008.67 940 1006.27C916.53 990.63 893.06 974.98 869.59 959.34C864.48 955.93 859.19 952.33 856.18 946.98C853.17 941.63 853.3 933.98 858.12 930.18C861.67 927.39 866.78 927.4 871.03 928.93C875.28 930.46 878.91 933.29 882.61 935.88C897.35 946.17 914.4 953.11 932.13 956.04C938.29 957.06 945.74 957.09 949.41 952.04C954.06 945.64 948.45 936.28 941.25 933.01C934.04 929.74 925.72 930.01 918.21 927.53C904.75 923.07 895.15 908.97 895.93 894.81C908.44 900.92 920.96 907.04 933.47 913.15C939.25 915.98 947.04 918.49 951.4 913.75C954.34 910.55 953.93 905.31 951.64 901.61C949.35 897.91 945.6 895.41 941.97 893.02C931.15 885.89 920.09 878.65 907.59 875.24C895.09 871.83 880.67 872.82 870.6 880.99C864.03 886.32 858.77 894.78 850.33 895.4C841.13 896.07 833.5 886.69 824.29 887.19C813.9 887.76 806.95 900.53 796.55 900.22C787.08 899.94 776.77 880.79 768.28 883.97C761.16 886.64 766.4 898.57 769.15 902.89C775.23 912.45 786.79 915.97 789.23 928.12C791.48 939.34 783.93 953.41 792.26 963.16L792.28 963.14Z" fill="#D60B52"/>
<path d="M870.73 1037.04C867.34 1043.78 867.34 1051.72 864.87 1058.86C862.26 1066.4 857.04 1072.69 852.19 1079.02C847.34 1085.35 842.64 1092.21 841.4 1100.09C840.16 1107.97 843.39 1117.09 850.7 1120.28C860.49 1124.55 871.15 1116.78 881.77 1115.7C890.82 1114.77 899.72 1118.86 907.01 1124.31C914.3 1129.76 920.44 1136.59 927.48 1142.37C933.89 1147.63 943.51 1151.95 949.99 1146.77C954.41 1143.23 955.09 1136.5 953.11 1131.19C951.13 1125.88 947.06 1121.67 943.1 1117.63C930.62 1104.87 899.32 1088.51 905.65 1079.36C911.98 1070.21 922.77 1078.62 930.67 1082.68C938.57 1086.74 949.38 1089.92 955.36 1083.35C959.35 1078.96 958.92 1071.84 955.89 1066.74C952.85 1061.64 947.78 1058.13 942.75 1054.97C929.2 1046.45 882.22 1014.13 870.7 1037.04H870.73Z" fill="#D60B52"/>
</svg>
