<svg id="Calque_1" data-name="Calque 1" xmlns="http://www.w3.org/2000/svg" xmlns:xlink="http://www.w3.org/1999/xlink" viewBox="0 0 77.39 71.68"><defs><style>.cls-1{fill:none;}.cls-2{clip-path:url(#clip-path);}.cls-3{fill:#fff;}</style><clipPath id="clip-path"><rect class="cls-1" x="-186.09" y="-323.06" width="595.28" height="841.89"/></clipPath></defs><title>Plan de travail 1</title><g class="cls-2"><path class="cls-3" d="M73.89,22.82a32.57,32.57,0,0,0-6-10.79,28.37,28.37,0,0,0-9.52-7.28A29.09,29.09,0,0,0,45.72,2.09H19.25V54.15l11.53,0V11.81H43a24.83,24.83,0,0,1,8.55,1.44,17.65,17.65,0,0,1,6.81,4.42,20.89,20.89,0,0,1,4.49,7.57,32.5,32.5,0,0,1,1.64,10.89A30.89,30.89,0,0,1,62.86,46.5a24.32,24.32,0,0,1-2,4.27l10.46,4.32a34.69,34.69,0,0,0,2.47-5.49A40.49,40.49,0,0,0,76,36a40.77,40.77,0,0,0-2.1-13.21"/><path class="cls-3" d="M47.9,37.12a30,30,0,0,1-1.57,9.18,21.86,21.86,0,0,1-4.47,7.59,18.51,18.51,0,0,1-6.81,4.67,22.83,22.83,0,0,1-8.59,1.58H14.27V22.5H2.74v7.64h0V70H29.19a28.35,28.35,0,0,0,21.87-9.77A32.94,32.94,0,0,0,57.27,49.4a40.22,40.22,0,0,0,2.17-12.28Z"/><path class="cls-3" d="M8.5,15.92A6.92,6.92,0,1,0,1.59,9,6.92,6.92,0,0,0,8.5,15.92"/></g></svg>